<svg version="1.1" xmlns="http://www.w3.org/2000/svg" viewBox="0 0 1757.9999999999995 1157.959318206836" width="5273.999999999998" height="3473.8779546205083">
  <!-- svg-source:excalidraw -->
  
  <defs>
    <style class="style-fonts">
      @font-face {
        font-family: "Virgil";
        src: url("https://excalidraw.com/Virgil.woff2");
      }
      @font-face {
        font-family: "Cascadia";
        src: url("https://excalidraw.com/Cascadia.woff2");
      }
      @font-face {
        font-family: "Assistant";
        src: url("https://excalidraw.com/Assistant-Regular.woff2");
      }
    </style>
    
  </defs>
  <rect x="0" y="0" width="1757.9999999999995" height="1157.959318206836" fill="#ffffff"></rect><g stroke-linecap="round" transform="translate(10 10) rotate(0 868.9999999999998 568.979659103418)"><path d="M32 0 C648.47 0, 1264.94 0, 1706 0 C1727.33 0, 1738 10.67, 1738 32 C1738 249.55, 1738 467.1, 1738 1105.96 C1738 1127.29, 1727.33 1137.96, 1706 1137.96 C1361.55 1137.96, 1017.11 1137.96, 32 1137.96 C10.67 1137.96, 0 1127.29, 0 1105.96 C0 858.14, 0 610.32, 0 32 C0 10.67, 10.67 0, 32 0" stroke="none" stroke-width="0" fill="#e7f5ff"></path><path d="M32 0 C601.47 0, 1170.93 0, 1706 0 M1706 0 C1727.33 0, 1738 10.67, 1738 32 M1738 32 C1738 340.5, 1738 649.01, 1738 1105.96 M1738 1105.96 C1738 1127.29, 1727.33 1137.96, 1706 1137.96 M1706 1137.96 C1107.23 1137.96, 508.45 1137.96, 32 1137.96 M32 1137.96 C10.67 1137.96, 0 1127.29, 0 1105.96 M0 1105.96 C0 868.97, 0 631.99, 0 32 M0 32 C0 10.67, 10.67 0, 32 0" stroke="#1e1e1e" stroke-width="2.5" fill="none" stroke-dasharray="8 10"></path></g><g stroke-linecap="round" transform="translate(400.5917601280397 45.208721834380185) rotate(0 119.47843980369566 53.392743673136636)"><path d="M26.7 0 C70.41 0, 114.12 0, 212.26 0 C230.06 0, 238.96 8.9, 238.96 26.7 C238.96 40.59, 238.96 54.48, 238.96 80.09 C238.96 97.89, 230.06 106.79, 212.26 106.79 C170.87 106.79, 129.48 106.79, 26.7 106.79 C8.9 106.79, 0 97.89, 0 80.09 C0 61.43, 0 42.76, 0 26.7 C0 8.9, 8.9 0, 26.7 0" stroke="none" stroke-width="0" fill="#b2f2bb"></path><path d="M26.7 0 C78.57 0, 130.44 0, 212.26 0 M26.7 0 C93.6 0, 160.51 0, 212.26 0 M212.26 0 C230.06 0, 238.96 8.9, 238.96 26.7 M212.26 0 C230.06 0, 238.96 8.9, 238.96 26.7 M238.96 26.7 C238.96 39.74, 238.96 52.79, 238.96 80.09 M238.96 26.7 C238.96 45.71, 238.96 64.73, 238.96 80.09 M238.96 80.09 C238.96 97.89, 230.06 106.79, 212.26 106.79 M238.96 80.09 C238.96 97.89, 230.06 106.79, 212.26 106.79 M212.26 106.79 C153.55 106.79, 94.84 106.79, 26.7 106.79 M212.26 106.79 C166.98 106.79, 121.71 106.79, 26.7 106.79 M26.7 106.79 C8.9 106.79, 0 97.89, 0 80.09 M26.7 106.79 C8.9 106.79, 0 97.89, 0 80.09 M0 80.09 C0 67, 0 53.91, 0 26.7 M0 80.09 C0 59.32, 0 38.55, 0 26.7 M0 26.7 C0 8.9, 8.9 0, 26.7 0 M0 26.7 C0 8.9, 8.9 0, 26.7 0" stroke="#1e1e1e" stroke-width="2" fill="none"></path></g><g transform="translate(449.7576999317354 86.60146550751688) rotate(0 70.3125 12)"><text x="70.3125" y="0" font-family="Cascadia, Segoe UI Emoji" font-size="20px" fill="#1e1e1e" text-anchor="middle" style="white-space: pre;" direction="ltr" dominant-baseline="text-before-edge">Apresentação</text></g><g stroke-linecap="round" transform="translate(82.63302768926746 254.46082642349654) rotate(0 97.77777777777777 39.99999999999994)"><path d="M0 0 L195.56 0 L195.56 80 L0 80" stroke="none" stroke-width="0" fill="#7950f2"></path><path d="M0 0 C39.38 0, 78.75 0, 195.56 0 M0 0 C72.59 0, 145.18 0, 195.56 0 M195.56 0 C195.56 20, 195.56 40, 195.56 80 M195.56 0 C195.56 26.71, 195.56 53.42, 195.56 80 M195.56 80 C138.49 80, 81.42 80, 0 80 M195.56 80 C139.03 80, 82.5 80, 0 80 M0 80 C0 54.45, 0 28.91, 0 0 M0 80 C0 52.43, 0 24.86, 0 0" stroke="#ffffff" stroke-width="4" fill="none"></path></g><g transform="translate(162.8326804670453 282.4608264234964) rotate(0 17.578125 12)"><text x="17.578125" y="0" font-family="Cascadia, Segoe UI Emoji" font-size="20px" fill="#ffffff" text-anchor="middle" style="white-space: pre;" direction="ltr" dominant-baseline="text-before-edge">Web</text></g><g stroke-linecap="round" transform="translate(375.9173489590587 230.0163820022765) rotate(0 142.22222222222223 32.22222222222223)"><path d="M0 0 L284.44 0 L284.44 64.44 L0 64.44" stroke="none" stroke-width="0" fill="#a5d8ff"></path><path d="M0 0 C79.99 0, 159.98 0, 284.44 0 M0 0 C63.23 0, 126.45 0, 284.44 0 M284.44 0 C284.44 19.79, 284.44 39.57, 284.44 64.44 M284.44 0 C284.44 25.04, 284.44 50.07, 284.44 64.44 M284.44 64.44 C175.45 64.44, 66.46 64.44, 0 64.44 M284.44 64.44 C225.85 64.44, 167.25 64.44, 0 64.44 M0 64.44 C0 44.21, 0 23.98, 0 0 M0 64.44 C0 39.73, 0 15.02, 0 0" stroke="#1e1e1e" stroke-width="2" fill="none"></path></g><g transform="translate(400.952071181281 250.23860422449866) rotate(0 117.1875 12)"><text x="117.1875" y="0" font-family="Cascadia, Segoe UI Emoji" font-size="20px" fill="#1e1e1e" text-anchor="middle" style="white-space: pre;" direction="ltr" dominant-baseline="text-before-edge">PlanoContaController</text></g><g stroke-linecap="round" transform="translate(375.91734895905904 294.46082644672094) rotate(0 142.22222222222217 32.22222222222223)"><path d="M0 0 L284.44 0 L284.44 64.44 L0 64.44" stroke="none" stroke-width="0" fill="#a5d8ff"></path><path d="M0 0 C108.8 0, 217.59 0, 284.44 0 M0 0 C57.21 0, 114.41 0, 284.44 0 M284.44 0 C284.44 24.87, 284.44 49.73, 284.44 64.44 M284.44 0 C284.44 14.92, 284.44 29.84, 284.44 64.44 M284.44 64.44 C195.25 64.44, 106.06 64.44, 0 64.44 M284.44 64.44 C188.28 64.44, 92.11 64.44, 0 64.44 M0 64.44 C0 40.43, 0 16.41, 0 0 M0 64.44 C0 43.85, 0 23.25, 0 0" stroke="#1e1e1e" stroke-width="2" fill="none"></path></g><g transform="translate(406.8114461812812 314.68304866894323) rotate(0 111.328125 12)"><text x="111.328125" y="0" font-family="Cascadia, Segoe UI Emoji" font-size="20px" fill="#1e1e1e" text-anchor="middle" style="white-space: pre;" direction="ltr" dominant-baseline="text-before-edge">TransacaoController</text></g><g stroke-linecap="round" transform="translate(82.63302865388357 453.9191044261429) rotate(0 97.77777777777777 39.99999999999994)"><path d="M0 0 L195.56 0 L195.56 80 L0 80" stroke="none" stroke-width="0" fill="#7950f2"></path><path d="M0 0 C59.55 0, 119.1 0, 195.56 0 M0 0 C67.67 0, 135.33 0, 195.56 0 M195.56 0 C195.56 30.15, 195.56 60.3, 195.56 80 M195.56 0 C195.56 17.12, 195.56 34.24, 195.56 80 M195.56 80 C118.26 80, 40.96 80, 0 80 M195.56 80 C132.05 80, 68.55 80, 0 80 M0 80 C0 56.31, 0 32.63, 0 0 M0 80 C0 52.62, 0 25.24, 0 0" stroke="#ffffff" stroke-width="4" fill="none"></path></g><g transform="translate(115.9576814316614 481.9191044261428) rotate(0 64.453125 12)"><text x="64.453125" y="0" font-family="Cascadia, Segoe UI Emoji" font-size="20px" fill="#ffffff" text-anchor="middle" style="white-space: pre;" direction="ltr" dominant-baseline="text-before-edge">Application</text></g><g stroke-linecap="round" transform="translate(82.63302790607452 664.8788120600145) rotate(0 97.77777777777777 39.99999999999994)"><path d="M0 0 L195.56 0 L195.56 80 L0 80" stroke="none" stroke-width="0" fill="#7950f2"></path><path d="M0 0 C68.15 0, 136.3 0, 195.56 0 M0 0 C43.77 0, 87.55 0, 195.56 0 M195.56 0 C195.56 28.36, 195.56 56.72, 195.56 80 M195.56 0 C195.56 31.18, 195.56 62.37, 195.56 80 M195.56 80 C124.5 80, 53.44 80, 0 80 M195.56 80 C133.86 80, 72.17 80, 0 80 M0 80 C0 50.86, 0 21.73, 0 0 M0 80 C0 55.59, 0 31.18, 0 0" stroke="#ffffff" stroke-width="4" fill="none"></path></g><g transform="translate(121.81705568385223 692.8788120600145) rotate(0 58.59375 12)"><text x="58.59375" y="0" font-family="Cascadia, Segoe UI Emoji" font-size="20px" fill="#ffffff" text-anchor="middle" style="white-space: pre;" direction="ltr" dominant-baseline="text-before-edge">Infra.Data</text></g><g stroke-linecap="round" transform="translate(1475.9063786142583 447.29155708968653) rotate(0 97.77777777777783 39.99999999999994)"><path d="M0 0 L195.56 0 L195.56 80 L0 80" stroke="none" stroke-width="0" fill="#7950f2"></path><path d="M0 0 C74.9 0, 149.8 0, 195.56 0 M0 0 C75.27 0, 150.54 0, 195.56 0 M195.56 0 C195.56 24.02, 195.56 48.04, 195.56 80 M195.56 0 C195.56 30.06, 195.56 60.12, 195.56 80 M195.56 80 C133.73 80, 71.89 80, 0 80 M195.56 80 C132.76 80, 69.96 80, 0 80 M0 80 C0 55.45, 0 30.89, 0 0 M0 80 C0 55.38, 0 30.75, 0 0" stroke="#ffffff" stroke-width="4" fill="none"></path></g><g transform="translate(1538.5279063920361 475.29155708968653) rotate(0 35.15625 12)"><text x="35.15625" y="0" font-family="Cascadia, Segoe UI Emoji" font-size="20px" fill="#ffffff" text-anchor="middle" style="white-space: pre;" direction="ltr" dominant-baseline="text-before-edge">Domain</text></g><g stroke-linecap="round" transform="translate(1472.6918242412767 657.1010342713931) rotate(0 97.77777777777771 39.99999999999994)"><path d="M0 0 L195.56 0 L195.56 80 L0 80" stroke="none" stroke-width="0" fill="#7950f2"></path><path d="M0 0 C74.5 0, 149 0, 195.56 0 M0 0 C64.89 0, 129.77 0, 195.56 0 M195.56 0 C195.56 16.03, 195.56 32.07, 195.56 80 M195.56 0 C195.56 31.8, 195.56 63.61, 195.56 80 M195.56 80 C119.71 80, 43.86 80, 0 80 M195.56 80 C125.35 80, 55.14 80, 0 80 M0 80 C0 63.09, 0 46.18, 0 0 M0 80 C0 49.67, 0 19.34, 0 0" stroke="#ffffff" stroke-width="4" fill="none"></path></g><g transform="translate(1517.735227019054 685.101034271393) rotate(0 52.734375 12)"><text x="52.734375" y="0" font-family="Cascadia, Segoe UI Emoji" font-size="20px" fill="#ffffff" text-anchor="middle" style="white-space: pre;" direction="ltr" dominant-baseline="text-before-edge">Infra.IoC</text></g><g stroke-linecap="round" transform="translate(785.0348704085756 251.2671370795199) rotate(0 45.62569588964311 43.77600551573863)"><path d="M46 0 L91.25 44 L46 87.55 L0 44" stroke="none" stroke-width="0" fill="#228be6" fill-rule="evenodd"></path><path d="M46 0 C55.22 8.96, 64.44 17.93, 91.25 44 M46 0 C64.05 17.55, 82.11 35.11, 91.25 44 M91.25 44 C74.25 60.37, 57.24 76.73, 46 87.55 M91.25 44 C81.8 53.1, 72.35 62.19, 46 87.55 M46 87.55 C32.62 74.88, 19.23 62.21, 0 44 M46 87.55 C33.6 75.81, 21.2 64.07, 0 44 M0 44 C13.52 31.07, 27.04 18.13, 46 0 M0 44 C13.76 30.84, 27.53 17.67, 46 0" stroke="#ffffff" stroke-width="4" fill="none"></path></g><g transform="translate(819.1289683533972 283.15513983738924) rotate(0 11.71875 12)"><text x="11.71875" y="0" font-family="Cascadia, Segoe UI Emoji" font-size="20px" fill="#ffffff" text-anchor="middle" style="white-space: pre;" direction="ltr" dominant-baseline="text-before-edge">DI</text></g><g stroke-linecap="round" transform="translate(785.2079993245117 450.14309933072275) rotate(0 45.62569588964311 43.77600551573863)"><path d="M46 0 L91.25 44 L46 87.55 L0 44" stroke="none" stroke-width="0" fill="#228be6" fill-rule="evenodd"></path><path d="M46 0 C62.54 16.09, 79.09 32.17, 91.25 44 M46 0 C63.24 16.77, 80.48 33.53, 91.25 44 M91.25 44 C74.23 60.39, 57.2 76.77, 46 87.55 M91.25 44 C82.16 52.75, 73.06 61.51, 46 87.55 M46 87.55 C36.59 78.64, 27.18 69.74, 0 44 M46 87.55 C32.04 74.34, 18.08 61.12, 0 44 M0 44 C13.01 31.55, 26.02 19.11, 46 0 M0 44 C14.67 29.97, 29.34 15.94, 46 0" stroke="#ffffff" stroke-width="4" fill="none"></path></g><g transform="translate(819.3020972693333 482.0311020885921) rotate(0 11.71875 12)"><text x="11.71875" y="0" font-family="Cascadia, Segoe UI Emoji" font-size="20px" fill="#ffffff" text-anchor="middle" style="white-space: pre;" direction="ltr" dominant-baseline="text-before-edge">DI</text></g><g stroke-linecap="round" transform="translate(785.0016400723206 649.601378384913) rotate(0 45.62569588964311 43.77600551573863)"><path d="M46 0 L91.25 44 L46 87.55 L0 44" stroke="none" stroke-width="0" fill="#228be6" fill-rule="evenodd"></path><path d="M46 0 C62.93 16.46, 79.86 32.92, 91.25 44 M46 0 C62.88 16.41, 79.76 32.83, 91.25 44 M91.25 44 C78.67 56.1, 66.1 68.21, 46 87.55 M91.25 44 C74.89 59.74, 58.54 75.49, 46 87.55 M46 87.55 C32.36 74.64, 18.72 61.73, 0 44 M46 87.55 C36.7 78.75, 27.41 69.95, 0 44 M0 44 C11.11 33.37, 22.22 22.75, 46 0 M0 44 C9.85 34.58, 19.69 25.16, 46 0" stroke="#ffffff" stroke-width="4" fill="none"></path></g><g transform="translate(819.0957380171423 681.4893811427823) rotate(0 11.71875 12)"><text x="11.71875" y="0" font-family="Cascadia, Segoe UI Emoji" font-size="20px" fill="#ffffff" text-anchor="middle" style="white-space: pre;" direction="ltr" dominant-baseline="text-before-edge">DI</text></g><g stroke-linecap="round" transform="translate(385.70310894522436 429.4746602857408) rotate(0 142.22222222222223 32.22222222222223)"><path d="M0 0 L284.44 0 L284.44 64.44 L0 64.44" stroke="none" stroke-width="0" fill="#a5d8ff"></path><path d="M0 0 C65.92 0, 131.83 0, 284.44 0 M0 0 C69.38 0, 138.76 0, 284.44 0 M284.44 0 C284.44 22.34, 284.44 44.68, 284.44 64.44 M284.44 0 C284.44 18.43, 284.44 36.86, 284.44 64.44 M284.44 64.44 C189.98 64.44, 95.51 64.44, 0 64.44 M284.44 64.44 C225.92 64.44, 167.39 64.44, 0 64.44 M0 64.44 C0 47.97, 0 31.5, 0 0 M0 64.44 C0 49.23, 0 34.02, 0 0" stroke="#1e1e1e" stroke-width="2" fill="none"></path></g><g transform="translate(428.31595616744664 449.696882507963) rotate(0 99.609375 12)"><text x="99.609375" y="0" font-family="Cascadia, Segoe UI Emoji" font-size="20px" fill="#1e1e1e" text-anchor="middle" style="white-space: pre;" direction="ltr" dominant-baseline="text-before-edge">PlanoContaService</text></g><g stroke-linecap="round" transform="translate(385.7031089452246 493.91910473018515) rotate(0 142.22222222222223 32.22222222222223)"><path d="M0 0 L284.44 0 L284.44 64.44 L0 64.44" stroke="none" stroke-width="0" fill="#a5d8ff"></path><path d="M0 0 C74.82 0, 149.64 0, 284.44 0 M0 0 C90.66 0, 181.32 0, 284.44 0 M284.44 0 C284.44 23.16, 284.44 46.32, 284.44 64.44 M284.44 0 C284.44 24.35, 284.44 48.7, 284.44 64.44 M284.44 64.44 C217.29 64.44, 150.14 64.44, 0 64.44 M284.44 64.44 C174.87 64.44, 65.3 64.44, 0 64.44 M0 64.44 C0 44.33, 0 24.21, 0 0 M0 64.44 C0 38.85, 0 13.25, 0 0" stroke="#1e1e1e" stroke-width="2" fill="none"></path></g><g transform="translate(434.17533116744687 514.1413269524073) rotate(0 93.75 12)"><text x="93.75" y="0" font-family="Cascadia, Segoe UI Emoji" font-size="20px" fill="#1e1e1e" text-anchor="middle" style="white-space: pre;" direction="ltr" dominant-baseline="text-before-edge">TransacaoService</text></g><g stroke-linecap="round" transform="translate(385.70310920634256 640.43436675779) rotate(0 142.22222222222223 32.22222222222223)"><path d="M0 0 L284.44 0 L284.44 64.44 L0 64.44" stroke="none" stroke-width="0" fill="#a5d8ff"></path><path d="M0 0 C58.3 0, 116.59 0, 284.44 0 M0 0 C66.31 0, 132.61 0, 284.44 0 M284.44 0 C284.44 14.02, 284.44 28.03, 284.44 64.44 M284.44 0 C284.44 20.92, 284.44 41.84, 284.44 64.44 M284.44 64.44 C177.89 64.44, 71.33 64.44, 0 64.44 M284.44 64.44 C219.42 64.44, 154.4 64.44, 0 64.44 M0 64.44 C0 40.99, 0 17.54, 0 0 M0 64.44 C0 40.22, 0 15.99, 0 0" stroke="#1e1e1e" stroke-width="2" fill="none"></path></g><g transform="translate(410.73783142856485 660.6565889800122) rotate(0 117.1875 12)"><text x="117.1875" y="0" font-family="Cascadia, Segoe UI Emoji" font-size="20px" fill="#1e1e1e" text-anchor="middle" style="white-space: pre;" direction="ltr" dominant-baseline="text-before-edge">PlanoContaRepository</text></g><g stroke-linecap="round" transform="translate(385.703109206343 704.8788112022344) rotate(0 142.22222222222223 32.22222222222223)"><path d="M0 0 L284.44 0 L284.44 64.44 L0 64.44" stroke="none" stroke-width="0" fill="#a5d8ff"></path><path d="M0 0 C79.33 0, 158.66 0, 284.44 0 M0 0 C80.99 0, 161.98 0, 284.44 0 M284.44 0 C284.44 15.23, 284.44 30.45, 284.44 64.44 M284.44 0 C284.44 17.36, 284.44 34.71, 284.44 64.44 M284.44 64.44 C206.36 64.44, 128.28 64.44, 0 64.44 M284.44 64.44 C224.1 64.44, 163.75 64.44, 0 64.44 M0 64.44 C0 51.26, 0 38.07, 0 0 M0 64.44 C0 48.61, 0 32.78, 0 0" stroke="#1e1e1e" stroke-width="2" fill="none"></path></g><g transform="translate(416.5972064285653 725.1010334244565) rotate(0 111.328125 12)"><text x="111.328125" y="0" font-family="Cascadia, Segoe UI Emoji" font-size="20px" fill="#1e1e1e" text-anchor="middle" style="white-space: pre;" direction="ltr" dominant-baseline="text-before-edge">TransacaoRepository</text></g><g stroke-linecap="round" transform="translate(1000.5168761832075 232.90806815348833) rotate(0 142.22222222222217 32.22222222222223)"><path d="M0 0 L284.44 0 L284.44 64.44 L0 64.44" stroke="none" stroke-width="0" fill="#a5d8ff"></path><path d="M0 0 C69.13 0, 138.25 0, 284.44 0 M0 0 C64.43 0, 128.86 0, 284.44 0 M284.44 0 C284.44 15.68, 284.44 31.36, 284.44 64.44 M284.44 0 C284.44 19.47, 284.44 38.93, 284.44 64.44 M284.44 64.44 C177.44 64.44, 70.45 64.44, 0 64.44 M284.44 64.44 C189.82 64.44, 95.19 64.44, 0 64.44 M0 64.44 C0 39.91, 0 15.38, 0 0 M0 64.44 C0 46.88, 0 29.31, 0 0" stroke="#1e1e1e" stroke-width="2" fill="none"></path></g><g transform="translate(1037.2703484054296 253.13029037571062) rotate(0 105.46875 12)"><text x="105.46875" y="0" font-family="Cascadia, Segoe UI Emoji" font-size="20px" fill="#1e1e1e" text-anchor="middle" style="white-space: pre;" direction="ltr" dominant-baseline="text-before-edge">IPlanoContaService</text></g><g stroke-linecap="round" transform="translate(1000.516876183208 297.3525125979329) rotate(0 142.22222222222217 32.22222222222223)"><path d="M0 0 L284.44 0 L284.44 64.44 L0 64.44" stroke="none" stroke-width="0" fill="#a5d8ff"></path><path d="M0 0 C81.21 0, 162.42 0, 284.44 0 M0 0 C58.19 0, 116.38 0, 284.44 0 M284.44 0 C284.44 16.67, 284.44 33.34, 284.44 64.44 M284.44 0 C284.44 14.29, 284.44 28.58, 284.44 64.44 M284.44 64.44 C192.71 64.44, 100.97 64.44, 0 64.44 M284.44 64.44 C179.81 64.44, 75.17 64.44, 0 64.44 M0 64.44 C0 49, 0 33.56, 0 0 M0 64.44 C0 38.75, 0 13.05, 0 0" stroke="#1e1e1e" stroke-width="2" fill="none"></path></g><g transform="translate(1043.12972340543 317.5747348201552) rotate(0 99.609375 12)"><text x="99.609375" y="0" font-family="Cascadia, Segoe UI Emoji" font-size="20px" fill="#1e1e1e" text-anchor="middle" style="white-space: pre;" direction="ltr" dominant-baseline="text-before-edge">ITransacaoService</text></g><g stroke-linecap="round" transform="translate(1001.8591847915301 426.83374438522696) rotate(0 142.22222222222217 32.22222222222223)"><path d="M0 0 L284.44 0 L284.44 64.44 L0 64.44" stroke="none" stroke-width="0" fill="#a5d8ff"></path><path d="M0 0 C92.78 0, 185.56 0, 284.44 0 M0 0 C100.78 0, 201.56 0, 284.44 0 M284.44 0 C284.44 18.81, 284.44 37.62, 284.44 64.44 M284.44 0 C284.44 13.22, 284.44 26.43, 284.44 64.44 M284.44 64.44 C223.51 64.44, 162.57 64.44, 0 64.44 M284.44 64.44 C211.64 64.44, 138.83 64.44, 0 64.44 M0 64.44 C0 51.16, 0 37.87, 0 0 M0 64.44 C0 40.64, 0 16.83, 0 0" stroke="#1e1e1e" stroke-width="2" fill="none"></path></g><g transform="translate(1021.0345320137523 447.05596660744925) rotate(0 123.046875 12)"><text x="123.046875" y="0" font-family="Cascadia, Segoe UI Emoji" font-size="20px" fill="#1e1e1e" text-anchor="middle" style="white-space: pre;" direction="ltr" dominant-baseline="text-before-edge">IPlanoContaRepository</text></g><g stroke-linecap="round" transform="translate(1001.8591847915305 491.27818882967154) rotate(0 142.22222222222217 32.22222222222223)"><path d="M0 0 L284.44 0 L284.44 64.44 L0 64.44" stroke="none" stroke-width="0" fill="#a5d8ff"></path><path d="M0 0 C99.21 0, 198.41 0, 284.44 0 M0 0 C57.72 0, 115.44 0, 284.44 0 M284.44 0 C284.44 20.09, 284.44 40.19, 284.44 64.44 M284.44 0 C284.44 14.51, 284.44 29.01, 284.44 64.44 M284.44 64.44 C206.02 64.44, 127.6 64.44, 0 64.44 M284.44 64.44 C217.99 64.44, 151.54 64.44, 0 64.44 M0 64.44 C0 51.24, 0 38.04, 0 0 M0 64.44 C0 50.62, 0 36.8, 0 0" stroke="#1e1e1e" stroke-width="2" fill="none"></path></g><g transform="translate(1026.8939070137526 511.5004110518938) rotate(0 117.1875 12)"><text x="117.1875" y="0" font-family="Cascadia, Segoe UI Emoji" font-size="20px" fill="#1e1e1e" text-anchor="middle" style="white-space: pre;" direction="ltr" dominant-baseline="text-before-edge">ITransacaoRepository</text></g><g stroke-linecap="round" transform="translate(1001.0390544507958 661.7939922583382) rotate(0 142.22222222222229 32.22222222222223)"><path d="M0 0 L284.44 0 L284.44 64.44 L0 64.44" stroke="none" stroke-width="0" fill="#a5d8ff"></path><path d="M0 0 C111.21 0, 222.43 0, 284.44 0 M0 0 C97.17 0, 194.34 0, 284.44 0 M284.44 0 C284.44 12.95, 284.44 25.89, 284.44 64.44 M284.44 0 C284.44 18.8, 284.44 37.59, 284.44 64.44 M284.44 64.44 C192.51 64.44, 100.58 64.44, 0 64.44 M284.44 64.44 C212.74 64.44, 141.03 64.44, 0 64.44 M0 64.44 C0 47.42, 0 30.4, 0 0 M0 64.44 C0 42.86, 0 21.27, 0 0" stroke="#1e1e1e" stroke-width="2" fill="none"></path></g><g transform="translate(1026.073776673018 682.0162144805605) rotate(0 117.1875 12)"><text x="117.1875" y="0" font-family="Cascadia, Segoe UI Emoji" font-size="20px" fill="#1e1e1e" text-anchor="middle" style="white-space: pre;" direction="ltr" dominant-baseline="text-before-edge">ApplicationDbContext</text></g><g stroke-opacity="0" fill-opacity="0" stroke-linecap="round" transform="translate(458.70981095721515 959.4732914305656) rotate(0 58.37866158183567 58.378661581835615)"><path d="M116.76 58.38 C116.76 60.72, 116.61 63.09, 116.33 65.42 C116.05 67.74, 115.62 70.07, 115.06 72.35 C114.5 74.63, 113.8 76.89, 112.96 79.08 C112.13 81.27, 111.16 83.43, 110.07 85.51 C108.98 87.59, 107.76 89.61, 106.42 91.54 C105.09 93.47, 103.63 95.34, 102.08 97.09 C100.52 98.85, 98.85 100.52, 97.09 102.08 C95.34 103.63, 93.47 105.09, 91.54 106.42 C89.61 107.76, 87.59 108.98, 85.51 110.07 C83.43 111.16, 81.27 112.13, 79.08 112.96 C76.89 113.8, 74.63 114.5, 72.35 115.06 C70.07 115.62, 67.74 116.05, 65.42 116.33 C63.09 116.61, 60.72 116.76, 58.38 116.76 C56.03 116.76, 53.67 116.61, 51.34 116.33 C49.01 116.05, 46.69 115.62, 44.41 115.06 C42.13 114.5, 39.87 113.8, 37.68 112.96 C35.48 112.13, 33.33 111.16, 31.25 110.07 C29.17 108.98, 27.15 107.76, 25.22 106.42 C23.29 105.09, 21.42 103.63, 19.67 102.08 C17.91 100.52, 16.24 98.85, 14.68 97.09 C13.13 95.34, 11.67 93.47, 10.33 91.54 C9 89.61, 7.78 87.59, 6.69 85.51 C5.6 83.43, 4.63 81.27, 3.79 79.08 C2.96 76.89, 2.26 74.63, 1.7 72.35 C1.14 70.07, 0.71 67.74, 0.43 65.42 C0.14 63.09, 0 60.72, 0 58.38 C0 56.03, 0.14 53.67, 0.43 51.34 C0.71 49.01, 1.14 46.69, 1.7 44.41 C2.26 42.13, 2.96 39.87, 3.79 37.68 C4.63 35.48, 5.6 33.33, 6.69 31.25 C7.78 29.17, 9 27.15, 10.33 25.22 C11.67 23.29, 13.13 21.42, 14.68 19.67 C16.24 17.91, 17.91 16.24, 19.67 14.68 C21.42 13.13, 23.29 11.67, 25.22 10.33 C27.15 9, 29.17 7.78, 31.25 6.69 C33.33 5.6, 35.48 4.63, 37.68 3.79 C39.87 2.96, 42.13 2.26, 44.41 1.7 C46.69 1.14, 49.01 0.71, 51.34 0.43 C53.67 0.14, 56.03 0, 58.38 0 C60.72 0, 63.09 0.14, 65.42 0.43 C67.74 0.71, 70.07 1.14, 72.35 1.7 C74.63 2.26, 76.89 2.96, 79.08 3.79 C81.27 4.63, 83.43 5.6, 85.51 6.69 C87.59 7.78, 89.61 9, 91.54 10.33 C93.47 11.67, 95.34 13.13, 97.09 14.68 C98.85 16.24, 100.52 17.91, 102.08 19.67 C103.63 21.42, 105.09 23.29, 106.42 25.22 C107.76 27.15, 108.98 29.17, 110.07 31.25 C111.16 33.33, 112.13 35.48, 112.96 37.68 C113.8 39.87, 114.5 42.13, 115.06 44.41 C115.62 46.69, 116.05 49.01, 116.33 51.34 C116.61 53.67, 116.76 56.03, 116.76 58.38" stroke="none" stroke-width="0" fill="#ffd43b"></path><path d="M116.76 58.38 C116.76 60.72, 116.61 63.09, 116.33 65.42 C116.05 67.74, 115.62 70.07, 115.06 72.35 C114.5 74.63, 113.8 76.89, 112.96 79.08 C112.13 81.27, 111.16 83.43, 110.07 85.51 C108.98 87.59, 107.76 89.61, 106.42 91.54 C105.09 93.47, 103.63 95.34, 102.08 97.09 C100.52 98.85, 98.85 100.52, 97.09 102.08 C95.34 103.63, 93.47 105.09, 91.54 106.42 C89.61 107.76, 87.59 108.98, 85.51 110.07 C83.43 111.16, 81.27 112.13, 79.08 112.96 C76.89 113.8, 74.63 114.5, 72.35 115.06 C70.07 115.62, 67.74 116.05, 65.42 116.33 C63.09 116.61, 60.72 116.76, 58.38 116.76 C56.03 116.76, 53.67 116.61, 51.34 116.33 C49.01 116.05, 46.69 115.62, 44.41 115.06 C42.13 114.5, 39.87 113.8, 37.68 112.96 C35.48 112.13, 33.33 111.16, 31.25 110.07 C29.17 108.98, 27.15 107.76, 25.22 106.42 C23.29 105.09, 21.42 103.63, 19.67 102.08 C17.91 100.52, 16.24 98.85, 14.68 97.09 C13.13 95.34, 11.67 93.47, 10.33 91.54 C9 89.61, 7.78 87.59, 6.69 85.51 C5.6 83.43, 4.63 81.27, 3.79 79.08 C2.96 76.89, 2.26 74.63, 1.7 72.35 C1.14 70.07, 0.71 67.74, 0.43 65.42 C0.14 63.09, 0 60.72, 0 58.38 C0 56.03, 0.14 53.67, 0.43 51.34 C0.71 49.01, 1.14 46.69, 1.7 44.41 C2.26 42.13, 2.96 39.87, 3.79 37.68 C4.63 35.48, 5.6 33.33, 6.69 31.25 C7.78 29.17, 9 27.15, 10.33 25.22 C11.67 23.29, 13.13 21.42, 14.68 19.67 C16.24 17.91, 17.91 16.24, 19.67 14.68 C21.42 13.13, 23.29 11.67, 25.22 10.33 C27.15 9, 29.17 7.78, 31.25 6.69 C33.33 5.6, 35.48 4.63, 37.68 3.79 C39.87 2.96, 42.13 2.26, 44.41 1.7 C46.69 1.14, 49.01 0.71, 51.34 0.43 C53.67 0.14, 56.03 0, 58.38 0 C60.72 0, 63.09 0.14, 65.42 0.43 C67.74 0.71, 70.07 1.14, 72.35 1.7 C74.63 2.26, 76.89 2.96, 79.08 3.79 C81.27 4.63, 83.43 5.6, 85.51 6.69 C87.59 7.78, 89.61 9, 91.54 10.33 C93.47 11.67, 95.34 13.13, 97.09 14.68 C98.85 16.24, 100.52 17.91, 102.08 19.67 C103.63 21.42, 105.09 23.29, 106.42 25.22 C107.76 27.15, 108.98 29.17, 110.07 31.25 C111.16 33.33, 112.13 35.48, 112.96 37.68 C113.8 39.87, 114.5 42.13, 115.06 44.41 C115.62 46.69, 116.05 49.01, 116.33 51.34 C116.61 53.67, 116.76 56.03, 116.76 58.38" stroke="#1e1e1e" stroke-width="1" fill="none"></path></g><g transform="translate(460.3818320304739 1036.2097786285071) rotate(0 58.59375 12)"><text x="117.1875" y="0" font-family="Cascadia, Segoe UI Emoji" font-size="20px" fill="#1e1e1e" text-anchor="end" style="white-space: pre;" direction="ltr" dominant-baseline="text-before-edge">SQL Server</text></g><g stroke-linecap="round"><g transform="translate(468.325184842848 944.9480524599693) rotate(0 47.57010446485708 24.529655452861817)" fill-rule="evenodd"><path d="M0 0 C0 10.46, -0.61 50.4, 0 62.76 C0.61 75.12, 0.89 70.56, 3.64 74.16 C6.39 77.76, 11.33 81.69, 16.5 84.36 C21.68 87.03, 27.79 89.33, 34.71 90.18 C41.62 91.03, 50.81 90.91, 58.01 89.45 C65.21 88, 72.41 84.36, 77.91 81.44 C83.41 78.53, 88.34 75.46, 91.01 71.98 C93.68 68.5, 93.28 68.66, 93.93 60.57 C94.57 52.48, 94.7 35.69, 94.9 23.44 C95.1 11.18, 95.22 -4.76, 95.14 -12.97 C95.06 -21.18, 96.35 -22.23, 94.41 -25.83 C92.47 -29.43, 89.36 -32.02, 83.49 -34.57 C77.63 -37.12, 67.59 -40.07, 59.22 -41.12 C50.85 -42.17, 40.94 -41.85, 33.25 -40.88 C25.56 -39.91, 18.24 -37.72, 13.11 -35.3 C7.97 -32.87, 4.57 -29.76, 2.43 -26.32 C0.28 -22.88, 0.65 -19.05, 0.24 -14.67 C-0.16 -10.28, 0.04 -2.44, 0 0" stroke="none" stroke-width="0" fill="#ffd43b" fill-rule="evenodd"></path><path d="M0 0 C0 10.46, -0.61 50.4, 0 62.76 C0.61 75.12, 0.89 70.56, 3.64 74.16 C6.39 77.76, 11.33 81.69, 16.5 84.36 C21.68 87.03, 27.79 89.33, 34.71 90.18 C41.62 91.03, 50.81 90.91, 58.01 89.45 C65.21 88, 72.41 84.36, 77.91 81.44 C83.41 78.53, 88.34 75.46, 91.01 71.98 C93.68 68.5, 93.28 68.66, 93.93 60.57 C94.57 52.48, 94.7 35.69, 94.9 23.44 C95.1 11.18, 95.22 -4.76, 95.14 -12.97 C95.06 -21.18, 96.35 -22.23, 94.41 -25.83 C92.47 -29.43, 89.36 -32.02, 83.49 -34.57 C77.63 -37.12, 67.59 -40.07, 59.22 -41.12 C50.85 -42.17, 40.94 -41.85, 33.25 -40.88 C25.56 -39.91, 18.24 -37.72, 13.11 -35.3 C7.97 -32.87, 4.57 -29.76, 2.43 -26.32 C0.28 -22.88, 0.65 -19.05, 0.24 -14.67 C-0.16 -10.28, 0.04 -2.44, 0 0 M0 0 C0 10.46, -0.61 50.4, 0 62.76 C0.61 75.12, 0.89 70.56, 3.64 74.16 C6.39 77.76, 11.33 81.69, 16.5 84.36 C21.68 87.03, 27.79 89.33, 34.71 90.18 C41.62 91.03, 50.81 90.91, 58.01 89.45 C65.21 88, 72.41 84.36, 77.91 81.44 C83.41 78.53, 88.34 75.46, 91.01 71.98 C93.68 68.5, 93.28 68.66, 93.93 60.57 C94.57 52.48, 94.7 35.69, 94.9 23.44 C95.1 11.18, 95.22 -4.76, 95.14 -12.97 C95.06 -21.18, 96.35 -22.23, 94.41 -25.83 C92.47 -29.43, 89.36 -32.02, 83.49 -34.57 C77.63 -37.12, 67.59 -40.07, 59.22 -41.12 C50.85 -42.17, 40.94 -41.85, 33.25 -40.88 C25.56 -39.91, 18.24 -37.72, 13.11 -35.3 C7.97 -32.87, 4.57 -29.76, 2.43 -26.32 C0.28 -22.88, 0.65 -19.05, 0.24 -14.67 C-0.16 -10.28, 0.04 -2.44, 0 0" stroke="#1e1e1e" stroke-width="1" fill="none"></path></g></g><mask></mask><g stroke-linecap="round"><g transform="translate(469.0532986866973 923.2424788283657) rotate(0 47.44875215754871 9.829536891973007)"><path d="M0 0 C1.7 1.9, 4.57 8.25, 10.19 11.41 C15.82 14.56, 25.65 17.56, 33.74 18.93 C41.83 20.31, 50.89 20.63, 58.73 19.66 C66.58 18.69, 74.79 15.98, 80.82 13.11 C86.85 10.23, 92.55 4.21, 94.9 2.43 M0 0 C1.7 1.9, 4.57 8.25, 10.19 11.41 C15.82 14.56, 25.65 17.56, 33.74 18.93 C41.83 20.31, 50.89 20.63, 58.73 19.66 C66.58 18.69, 74.79 15.98, 80.82 13.11 C86.85 10.23, 92.55 4.21, 94.9 2.43" stroke="#1e1e1e" stroke-width="1" fill="none"></path></g></g><mask></mask><g stroke-linecap="round"><g transform="translate(468.2740505255591 943.784268243481) rotate(0 47.44875215754871 9.829536891973007)"><path d="M0 0 C1.7 1.9, 4.57 8.25, 10.19 11.41 C15.82 14.56, 25.65 17.56, 33.74 18.93 C41.83 20.31, 50.89 20.63, 58.73 19.66 C66.58 18.69, 74.79 15.98, 80.82 13.11 C86.85 10.23, 92.55 4.21, 94.9 2.43 M0 0 C1.7 1.9, 4.57 8.25, 10.19 11.41 C15.82 14.56, 25.65 17.56, 33.74 18.93 C41.83 20.31, 50.89 20.63, 58.73 19.66 C66.58 18.69, 74.79 15.98, 80.82 13.11 C86.85 10.23, 92.55 4.21, 94.9 2.43" stroke="#1e1e1e" stroke-width="1" fill="none"></path></g></g><mask></mask><g stroke-linecap="round"><g transform="translate(467.60696674099415 958.66679165881) rotate(0 47.44875215754871 9.829536891973007)"><path d="M0 0 C1.7 1.9, 4.57 8.25, 10.19 11.41 C15.82 14.56, 25.65 17.56, 33.74 18.93 C41.83 20.31, 50.89 20.63, 58.73 19.66 C66.58 18.69, 74.79 15.98, 80.82 13.11 C86.85 10.23, 92.55 4.21, 94.9 2.43 M0 0 C1.7 1.9, 4.57 8.25, 10.19 11.41 C15.82 14.56, 25.65 17.56, 33.74 18.93 C41.83 20.31, 50.89 20.63, 58.73 19.66 C66.58 18.69, 74.79 15.98, 80.82 13.11 C86.85 10.23, 92.55 4.21, 94.9 2.43" stroke="#1e1e1e" stroke-width="1" fill="none"></path></g></g><mask></mask><g stroke-linecap="round" transform="translate(571.5603730541019 807.8715424352215) rotate(0 65.29781764046345 23.332777527082555)"><path d="M0 0 L130.6 0 L130.6 46.67 L0 46.67" stroke="none" stroke-width="0" fill="#b2f2bb"></path><path d="M0 0 C35.56 0, 71.12 0, 130.6 0 M0 0 C29.28 0, 58.56 0, 130.6 0 M130.6 0 C130.6 10.33, 130.6 20.66, 130.6 46.67 M130.6 0 C130.6 9.61, 130.6 19.23, 130.6 46.67 M130.6 46.67 C97.09 46.67, 63.58 46.67, 0 46.67 M130.6 46.67 C85.78 46.67, 40.97 46.67, 0 46.67 M0 46.67 C0 30.48, 0 14.3, 0 0 M0 46.67 C0 33.36, 0 20.05, 0 0" stroke="#1e1e1e" stroke-width="2" fill="none"></path></g><g transform="translate(603.1433469445655 819.6916699774678) rotate(0 33.71484375 11.512649984836344)"><text x="33.71484375" y="0" font-family="Cascadia, Segoe UI Emoji" font-size="19.18774997472726px" fill="#1e1e1e" text-anchor="middle" style="white-space: pre;" direction="ltr" dominant-baseline="text-before-edge">Entity</text></g><g stroke-linecap="round" transform="translate(1386.072243439362 807.8334115112061) rotate(0 142.22222222222229 32.22222222222223)"><path d="M0 0 L284.44 0 L284.44 64.44 L0 64.44" stroke="none" stroke-width="0" fill="#a5d8ff"></path><path d="M0 0 C92.94 0, 185.87 0, 284.44 0 M0 0 C88.73 0, 177.47 0, 284.44 0 M284.44 0 C284.44 13.83, 284.44 27.67, 284.44 64.44 M284.44 0 C284.44 21.02, 284.44 42.03, 284.44 64.44 M284.44 64.44 C211.61 64.44, 138.78 64.44, 0 64.44 M284.44 64.44 C193.39 64.44, 102.34 64.44, 0 64.44 M0 64.44 C0 39.59, 0 14.74, 0 0 M0 64.44 C0 39.66, 0 14.87, 0 0" stroke="#1e1e1e" stroke-width="2" fill="none"></path></g><g transform="translate(1411.1069656615841 828.0556337334283) rotate(0 117.18749999999989 12)"><text x="117.1875" y="0" font-family="Cascadia, Segoe UI Emoji" font-size="20px" fill="#1e1e1e" text-anchor="middle" style="white-space: pre;" direction="ltr" dominant-baseline="text-before-edge">ApplicationDbContext</text></g><g stroke-linecap="round" transform="translate(1386.0722434393629 872.2778559556507) rotate(0 142.22222222222229 32.22222222222223)"><path d="M0 0 L284.44 0 L284.44 64.44 L0 64.44" stroke="none" stroke-width="0" fill="#a5d8ff"></path><path d="M0 0 C81.31 0, 162.62 0, 284.44 0 M0 0 C105.03 0, 210.06 0, 284.44 0 M284.44 0 C284.44 18.19, 284.44 36.38, 284.44 64.44 M284.44 0 C284.44 13.89, 284.44 27.78, 284.44 64.44 M284.44 64.44 C175.63 64.44, 66.81 64.44, 0 64.44 M284.44 64.44 C221.39 64.44, 158.33 64.44, 0 64.44 M0 64.44 C0 40.4, 0 16.36, 0 0 M0 64.44 C0 51.44, 0 38.43, 0 0" stroke="#1e1e1e" stroke-width="2" fill="none"></path></g><g transform="translate(1416.966340661585 892.5000781778729) rotate(0 111.32812499999989 12)"><text x="111.328125" y="0" font-family="Cascadia, Segoe UI Emoji" font-size="20px" fill="#1e1e1e" text-anchor="middle" style="white-space: pre;" direction="ltr" dominant-baseline="text-before-edge">TransacaoRepository</text></g><g stroke-linecap="round" transform="translate(1386.0722428854206 936.7223010014246) rotate(0 142.22222222222217 32.22222222222223)"><path d="M0 0 L284.44 0 L284.44 64.44 L0 64.44" stroke="none" stroke-width="0" fill="#a5d8ff"></path><path d="M0 0 C71.91 0, 143.82 0, 284.44 0 M0 0 C82.48 0, 164.96 0, 284.44 0 M284.44 0 C284.44 15.41, 284.44 30.81, 284.44 64.44 M284.44 0 C284.44 24.07, 284.44 48.13, 284.44 64.44 M284.44 64.44 C209.94 64.44, 135.44 64.44, 0 64.44 M284.44 64.44 C183.31 64.44, 82.17 64.44, 0 64.44 M0 64.44 C0 51.38, 0 38.32, 0 0 M0 64.44 C0 40.38, 0 16.32, 0 0" stroke="#1e1e1e" stroke-width="2" fill="none"></path></g><g transform="translate(1411.1069651076427 956.9445232236469) rotate(0 117.1875 12)"><text x="117.1875" y="0" font-family="Cascadia, Segoe UI Emoji" font-size="20px" fill="#1e1e1e" text-anchor="middle" style="white-space: pre;" direction="ltr" dominant-baseline="text-before-edge">PlanoContaRepository</text></g><g stroke-linecap="round" transform="translate(1386.0722428854215 1001.1667454458692) rotate(0 142.22222222222217 32.22222222222223)"><path d="M0 0 L284.44 0 L284.44 64.44 L0 64.44" stroke="none" stroke-width="0" fill="#a5d8ff"></path><path d="M0 0 C88.87 0, 177.74 0, 284.44 0 M0 0 C90.96 0, 181.93 0, 284.44 0 M284.44 0 C284.44 22.16, 284.44 44.32, 284.44 64.44 M284.44 0 C284.44 18.67, 284.44 37.34, 284.44 64.44 M284.44 64.44 C210.28 64.44, 136.11 64.44, 0 64.44 M284.44 64.44 C173.07 64.44, 61.69 64.44, 0 64.44 M0 64.44 C0 47.19, 0 29.94, 0 0 M0 64.44 C0 47.44, 0 30.43, 0 0" stroke="#1e1e1e" stroke-width="2" fill="none"></path></g><g transform="translate(1428.6850901076436 1021.3889676680915) rotate(0 99.609375 12)"><text x="99.609375" y="0" font-family="Cascadia, Segoe UI Emoji" font-size="20px" fill="#1e1e1e" text-anchor="middle" style="white-space: pre;" direction="ltr" dominant-baseline="text-before-edge">PlanoContaService</text></g><g stroke-linecap="round" transform="translate(1386.0722434961995 1065.6111898924373) rotate(0 142.22222222222217 32.22222222222223)"><path d="M0 0 L284.44 0 L284.44 64.44 L0 64.44" stroke="none" stroke-width="0" fill="#a5d8ff"></path><path d="M0 0 C101.62 0, 203.25 0, 284.44 0 M0 0 C109.2 0, 218.41 0, 284.44 0 M284.44 0 C284.44 21.33, 284.44 42.66, 284.44 64.44 M284.44 0 C284.44 15.79, 284.44 31.57, 284.44 64.44 M284.44 64.44 C204.85 64.44, 125.25 64.44, 0 64.44 M284.44 64.44 C204.18 64.44, 123.91 64.44, 0 64.44 M0 64.44 C0 45.32, 0 26.2, 0 0 M0 64.44 C0 49.4, 0 34.35, 0 0" stroke="#1e1e1e" stroke-width="2" fill="none"></path></g><g transform="translate(1434.5444657184216 1085.8334121146595) rotate(0 93.75 12)"><text x="93.75" y="0" font-family="Cascadia, Segoe UI Emoji" font-size="20px" fill="#1e1e1e" text-anchor="middle" style="white-space: pre;" direction="ltr" dominant-baseline="text-before-edge">TransacaoService</text></g><g stroke-linecap="round"><g transform="translate(1566.4495691568304 738.101034271393) rotate(0 -0.0015583124056774977 30.368176461350686)"><path d="M0 0 C0 19.49, 0 38.97, 0 60.74 M0 0 C0 23.42, 0 46.85, 0 60.74" stroke="#1e1e1e" stroke-width="2" fill="none"></path></g><g transform="translate(1566.4495691568304 738.101034271393) rotate(0 -0.0015583124056774977 30.368176461350686)"><path d="M0 60.74 L-6.34 47.14 L6.34 47.14 L0 60.74" stroke="none" stroke-width="0" fill="#1e1e1e" fill-rule="evenodd"></path><path d="M0 60.74 C-2.04 56.37, -4.07 52.01, -6.34 47.14 M0 60.74 C-2.45 55.49, -4.89 50.25, -6.34 47.14 M-6.34 47.14 C-1.68 47.14, 2.98 47.14, 6.34 47.14 M-6.34 47.14 C-3.7 47.14, -1.06 47.14, 6.34 47.14 M6.34 47.14 C3.84 52.5, 1.34 57.87, 0 60.74 M6.34 47.14 C4.99 50.03, 3.64 52.92, 0 60.74 M0 60.74 C0 60.74, 0 60.74, 0 60.74 M0 60.74 C0 60.74, 0 60.74, 0 60.74" stroke="#1e1e1e" stroke-width="2" fill="none"></path></g></g><mask></mask><g stroke-linecap="round"><g transform="translate(998.2323814627867 693.6614239192019) rotate(0 -59.79769984628058 -0.045600524926271646)"><path d="M0 0 C-35.65 -0.03, -71.3 -0.05, -119.6 -0.09 M0 0 C-30.57 -0.02, -61.14 -0.05, -119.6 -0.09" stroke="#1e1e1e" stroke-width="2" fill="none"></path></g><g transform="translate(998.2323814627867 693.6614239192019) rotate(0 -59.79769984628058 -0.045600524926271646)"><path d="M-119.6 -0.09 L-106 -6.42 L-106.01 6.26 L-119.6 -0.09" stroke="none" stroke-width="0" fill="#1e1e1e" fill-rule="evenodd"></path><path d="M-119.6 -0.09 C-115.54 -1.98, -111.49 -3.86, -106 -6.42 M-119.6 -0.09 C-116.12 -1.71, -112.64 -3.33, -106 -6.42 M-106 -6.42 C-106 -2.39, -106 1.64, -106.01 6.26 M-106 -6.42 C-106 -2.72, -106 0.98, -106.01 6.26 M-106.01 6.26 C-109.87 4.45, -113.73 2.65, -119.6 -0.09 M-106.01 6.26 C-110.09 4.35, -114.17 2.44, -119.6 -0.09 M-119.6 -0.09 C-119.6 -0.09, -119.6 -0.09, -119.6 -0.09 M-119.6 -0.09 C-119.6 -0.09, -119.6 -0.09, -119.6 -0.09" stroke="#1e1e1e" stroke-width="2" fill="none"></path></g></g><mask></mask><g stroke-linecap="round"><g transform="translate(527.7869663409771 559.3635491746295) rotate(0 -0.00039647150356358907 39.04096651986552)"><path d="M0 0 C0 25.02, 0 50.05, 0 78.08 M0 0 C0 18.25, 0 36.51, 0 78.08" stroke="#1e1e1e" stroke-width="2" fill="none"></path></g><g transform="translate(527.7869663409771 559.3635491746295) rotate(0 -0.00039647150356358907 39.04096651986552)"><path d="M0 78.08 L-6.34 64.49 L6.34 64.49 L0 78.08" stroke="none" stroke-width="0" fill="#1e1e1e" fill-rule="evenodd"></path><path d="M0 78.08 C-2.03 73.73, -4.06 69.37, -6.34 64.49 M0 78.08 C-1.48 74.9, -2.96 71.73, -6.34 64.49 M-6.34 64.49 C-2.14 64.49, 2.06 64.49, 6.34 64.49 M-6.34 64.49 C-2.52 64.49, 1.3 64.49, 6.34 64.49 M6.34 64.49 C4.91 67.54, 3.49 70.6, 0 78.08 M6.34 64.49 C4.08 69.34, 1.81 74.19, 0 78.08 M0 78.08 C0 78.08, 0 78.08, 0 78.08 M0 78.08 C0 78.08, 0 78.08, 0 78.08" stroke="#1e1e1e" stroke-width="2" fill="none"></path></g></g><mask></mask><g stroke-linecap="round"><g transform="translate(520.6493888831798 770.7510904647713) rotate(0 0 65.54251487946459)"><path d="M0 0 C0 46.73, 0 93.46, 0 131.09 M0 0 C0 46.7, 0 93.39, 0 131.09" stroke="#1e1e1e" stroke-width="2" fill="none"></path></g><g transform="translate(520.6493888831798 770.7510904647713) rotate(0 0 65.54251487946459)"><path d="M0 131.09 L-6.34 117.49 L6.34 117.49 L0 131.09" stroke="none" stroke-width="0" fill="#1e1e1e" fill-rule="evenodd"></path><path d="M0 131.09 C-2.26 126.24, -4.52 121.39, -6.34 117.49 M0 131.09 C-2.26 126.24, -4.52 121.4, -6.34 117.49 M-6.34 117.49 C-1.67 117.49, 3.01 117.49, 6.34 117.49 M-6.34 117.49 C-3.44 117.49, -0.55 117.49, 6.34 117.49 M6.34 117.49 C5 120.37, 3.65 123.25, 0 131.09 M6.34 117.49 C4.59 121.24, 2.85 124.98, 0 131.09 M0 131.09 C0 131.09, 0 131.09, 0 131.09 M0 131.09 C0 131.09, 0 131.09, 0 131.09" stroke="#1e1e1e" stroke-width="2" fill="none"></path></g></g><mask></mask><g stroke-linecap="round"><g transform="translate(1386.654855742997 838.4340149771551) rotate(0 -277.99714488707014 -50.140588914972284)"><path d="M0 0 C-212.55 0, -425.1 0, -555.99 0 M0 0 C-112.32 0, -224.64 0, -555.99 0 M-555.99 0 C-555.99 -33.8, -555.99 -67.61, -555.99 -100.28 M-555.99 0 C-555.99 -30.59, -555.99 -61.18, -555.99 -100.28" stroke="#1e1e1e" stroke-width="2" fill="none"></path></g><g transform="translate(1386.654855742997 838.4340149771551) rotate(0 -277.99714488707014 -50.140588914972284)"><path d="M-555.99 -100.28 L-549.66 -86.69 L-562.33 -86.69 L-555.99 -100.28" stroke="none" stroke-width="0" fill="#1e1e1e" fill-rule="evenodd"></path><path d="M-555.99 -100.28 C-553.57 -95.08, -551.15 -89.89, -549.66 -86.69 M-555.99 -100.28 C-554.71 -97.53, -553.43 -94.79, -549.66 -86.69 M-549.66 -86.69 C-553.93 -86.69, -558.2 -86.69, -562.33 -86.69 M-549.66 -86.69 C-553.52 -86.69, -557.39 -86.69, -562.33 -86.69 M-562.33 -86.69 C-560.85 -89.87, -559.37 -93.04, -555.99 -100.28 M-562.33 -86.69 C-560.52 -90.57, -558.72 -94.44, -555.99 -100.28 M-555.99 -100.28 C-555.99 -100.28, -555.99 -100.28, -555.99 -100.28 M-555.99 -100.28 C-555.99 -100.28, -555.99 -100.28, -555.99 -100.28" stroke="#1e1e1e" stroke-width="2" fill="none"></path></g></g><mask></mask><g stroke-linecap="round"><g transform="translate(831.0361645854285 646.0985323279876) rotate(0 -0.00017790539709494624 -52.56883545748005)"><path d="M0 0 C0 -32.11, 0 -64.22, 0 -105.14 M0 0 C0 -22.15, 0 -44.29, 0 -105.14" stroke="#1e1e1e" stroke-width="2" fill="none"></path></g><g transform="translate(831.0361645854285 646.0985323279876) rotate(0 -0.00017790539709494624 -52.56883545748005)"><path d="M0 -105.14 L6.34 -91.54 L-6.34 -91.54 L0 -105.14" stroke="none" stroke-width="0" fill="#1e1e1e" fill-rule="evenodd"></path><path d="M0 -105.14 C1.94 -100.99, 3.87 -96.83, 6.34 -91.54 M0 -105.14 C1.33 -102.27, 2.67 -99.41, 6.34 -91.54 M6.34 -91.54 C3.02 -91.54, -0.31 -91.54, -6.34 -91.54 M6.34 -91.54 C1.34 -91.54, -3.67 -91.54, -6.34 -91.54 M-6.34 -91.54 C-4.89 -94.66, -3.43 -97.77, 0 -105.14 M-6.34 -91.54 C-4.93 -94.56, -3.52 -97.58, 0 -105.14 M0 -105.14 C0 -105.14, 0 -105.14, 0 -105.14 M0 -105.14 C0 -105.14, 0 -105.14, 0 -105.14" stroke="#1e1e1e" stroke-width="2" fill="none"></path></g></g><mask></mask><g stroke-linecap="round"><g transform="translate(831.6179657768924 445.8070717529911) rotate(0 0 -50.89951155280397)"><path d="M0 0 C0 -29.66, 0 -59.32, 0 -101.8 M0 0 C0 -25.98, 0 -51.96, 0 -101.8" stroke="#1e1e1e" stroke-width="2" fill="none"></path></g><g transform="translate(831.6179657768924 445.8070717529911) rotate(0 0 -50.89951155280397)"><path d="M0 -101.8 L6.34 -88.2 L-6.34 -88.2 L0 -101.8" stroke="none" stroke-width="0" fill="#1e1e1e" fill-rule="evenodd"></path><path d="M0 -101.8 C1.85 -97.84, 3.69 -93.88, 6.34 -88.2 M0 -101.8 C1.62 -98.33, 3.24 -94.86, 6.34 -88.2 M6.34 -88.2 C3.24 -88.2, 0.15 -88.2, -6.34 -88.2 M6.34 -88.2 C1.93 -88.2, -2.48 -88.2, -6.34 -88.2 M-6.34 -88.2 C-4.52 -92.1, -2.7 -96, 0 -101.8 M-6.34 -88.2 C-4.59 -91.95, -2.84 -95.7, 0 -101.8 M0 -101.8 C0 -101.8, 0 -101.8, 0 -101.8 M0 -101.8 C0 -101.8, 0 -101.8, 0 -101.8" stroke="#1e1e1e" stroke-width="2" fill="none"></path></g></g><mask></mask><g stroke-linecap="round"><g transform="translate(1003.3006189858062 456.16489574609216) rotate(0 -37.31596494080384 38.54616158720404)"><path d="M0 0 C-19.83 0, -39.66 0, -74.63 0 M0 0 C-18.48 0, -36.96 0, -74.63 0 M-74.63 0 C-74.63 23.82, -74.63 47.65, -74.63 77.09 M-74.63 0 C-74.63 18.14, -74.63 36.28, -74.63 77.09 M-74.63 77.09 C-48.6 77.09, -22.57 77.09, -0.82 77.09 M-74.63 77.09 C-48.24 77.09, -21.86 77.09, -0.82 77.09" stroke="#1e1e1e" stroke-width="2" fill="none"></path></g></g><mask></mask><g stroke-linecap="round"><g transform="translate(1000.3180477906059 261.6396110276679) rotate(0 -35.265637196803596 36.4958338432038)"><path d="M0 0 C-24.89 0, -49.78 0, -72.17 0 M0 0 C-22.51 0, -45.01 0, -72.17 0 M-72.17 0 C-72.17 26.96, -72.17 53.92, -72.17 72.99 M-72.17 0 C-72.17 21.02, -72.17 42.04, -72.17 72.99 M-72.17 72.99 C-50.8 72.99, -29.43 72.99, 1.64 72.99 M-72.17 72.99 C-46.7 72.99, -21.23 72.99, 1.64 72.99" stroke="#1e1e1e" stroke-width="2" fill="none"></path></g></g><mask></mask><g stroke-linecap="round"><g transform="translate(730.7639605296168 659.7643534363428) rotate(0 0 38.258218734508944)"><path d="M0 0 C0 15.55, 0 31.1, 0 76.52 M0 0 C0 17.69, 0 35.37, 0 76.52" stroke="#1e1e1e" stroke-width="2" fill="none"></path></g></g><mask></mask><g stroke-linecap="round"><g transform="translate(731.7576804967467 694.0476923023314) rotate(0 25.339859161817685 0)"><path d="M0 0 C15.57 0, 31.13 0, 50.68 0 M0 0 C13.34 0, 26.67 0, 50.68 0" stroke="#1e1e1e" stroke-width="2" fill="none"></path></g></g><mask></mask><g stroke-linecap="round"><g transform="translate(730.7639605296168 660.2612134199079) rotate(0 -28.072589071425455 0)"><path d="M0 0 C-14.21 0, -28.42 0, -56.15 0 M0 0 C-14.38 0, -28.76 0, -56.15 0" stroke="#1e1e1e" stroke-width="2" fill="none"></path></g><g transform="translate(730.7639605296168 660.2612134199079) rotate(0 -28.072589071425455 0)"><path d="M-56.15 0 L-42.55 -6.34 L-42.55 6.34 L-56.15 0" stroke="none" stroke-width="0" fill="#1e1e1e" fill-rule="evenodd"></path><path d="M-56.15 0 C-52.7 -1.6, -49.26 -3.21, -42.55 -6.34 M-56.15 0 C-52.66 -1.62, -49.18 -3.25, -42.55 -6.34 M-42.55 -6.34 C-42.55 -3.73, -42.55 -1.11, -42.55 6.34 M-42.55 -6.34 C-42.55 -3.07, -42.55 0.21, -42.55 6.34 M-42.55 6.34 C-45.35 5.04, -48.14 3.73, -56.15 0 M-42.55 6.34 C-45.47 4.98, -48.39 3.62, -56.15 0 M-56.15 0 C-56.15 0, -56.15 0, -56.15 0 M-56.15 0 C-56.15 0, -56.15 0, -56.15 0" stroke="#1e1e1e" stroke-width="2" fill="none"></path></g></g><mask></mask><g stroke-linecap="round"><g transform="translate(730.7639605296168 735.7839309217957) rotate(0 -29.314739030338046 0)"><path d="M0 0 C-12.88 0, -25.76 0, -58.63 0 M0 0 C-15.87 0, -31.73 0, -58.63 0" stroke="#1e1e1e" stroke-width="2" fill="none"></path></g><g transform="translate(730.7639605296168 735.7839309217957) rotate(0 -29.314739030338046 0)"><path d="M-58.63 0 L-45.03 -6.34 L-45.03 6.34 L-58.63 0" stroke="none" stroke-width="0" fill="#1e1e1e" fill-rule="evenodd"></path><path d="M-58.63 0 C-55.64 -1.39, -52.66 -2.79, -45.03 -6.34 M-58.63 0 C-54.95 -1.72, -51.27 -3.43, -45.03 -6.34 M-45.03 -6.34 C-45.03 -2.29, -45.03 1.75, -45.03 6.34 M-45.03 -6.34 C-45.03 -2.04, -45.03 2.26, -45.03 6.34 M-45.03 6.34 C-48.45 4.75, -51.87 3.15, -58.63 0 M-45.03 6.34 C-48.54 4.7, -52.05 3.07, -58.63 0 M-58.63 0 C-58.63 0, -58.63 0, -58.63 0 M-58.63 0 C-58.63 0, -58.63 0, -58.63 0" stroke="#1e1e1e" stroke-width="2" fill="none"></path></g></g><mask></mask><g stroke-linecap="round"><g transform="translate(340.2711427604122 664.6498974372598) rotate(0 0 41.3537646217147)"><path d="M0 0 C0 27.99, 0 55.98, 0 82.71 M0 0 C0 19.2, 0 38.4, 0 82.71" stroke="#1e1e1e" stroke-width="2" fill="none"></path></g></g><mask></mask><g stroke-linecap="round"><g transform="translate(276.7870304414356 703.8720247073398) rotate(0 31.548232804194754 0)"><path d="M0 0 C13.59 0, 27.17 0, 63.1 0 M0 0 C22.76 0, 45.52 0, 63.1 0" stroke="#1e1e1e" stroke-width="2" fill="none"></path></g></g><mask></mask><g stroke-linecap="round"><g transform="translate(340.369230333734 664.7861903805805) rotate(0 21.19118549293563 0)"><path d="M0 0 C14.51 0, 29.01 0, 42.38 0 M0 0 C13.52 0, 27.05 0, 42.38 0" stroke="#1e1e1e" stroke-width="2" fill="none"></path></g><g transform="translate(340.369230333734 664.7861903805805) rotate(0 21.19118549293563 0)"><path d="M42.38 0 L28.79 6.34 L28.79 -6.34 L42.38 0" stroke="none" stroke-width="0" fill="#1e1e1e" fill-rule="evenodd"></path><path d="M42.38 0 C37.73 2.17, 33.08 4.34, 28.79 6.34 M42.38 0 C38.04 2.02, 33.71 4.05, 28.79 6.34 M28.79 6.34 C28.79 2.97, 28.79 -0.4, 28.79 -6.34 M28.79 6.34 C28.79 1.83, 28.79 -2.67, 28.79 -6.34 M28.79 -6.34 C32.45 -4.63, 36.11 -2.92, 42.38 0 M28.79 -6.34 C33.84 -3.98, 38.89 -1.63, 42.38 0 M42.38 0 C42.38 0, 42.38 0, 42.38 0 M42.38 0 C42.38 0, 42.38 0, 42.38 0" stroke="#1e1e1e" stroke-width="2" fill="none"></path></g></g><mask></mask><g stroke-linecap="round"><g transform="translate(340.1076107597471 747.1963561864414) rotate(0 21.452805066922508 0)"><path d="M0 0 C14.81 0, 29.62 0, 42.91 0 M0 0 C12.03 0, 24.07 0, 42.91 0" stroke="#1e1e1e" stroke-width="2" fill="none"></path></g><g transform="translate(340.1076107597471 747.1963561864414) rotate(0 21.452805066922508 0)"><path d="M42.91 0 L29.31 6.34 L29.31 -6.34 L42.91 0" stroke="none" stroke-width="0" fill="#1e1e1e" fill-rule="evenodd"></path><path d="M42.91 0 C38.21 2.19, 33.52 4.38, 29.31 6.34 M42.91 0 C39.09 1.78, 35.28 3.56, 29.31 6.34 M29.31 6.34 C29.31 2.28, 29.31 -1.78, 29.31 -6.34 M29.31 6.34 C29.31 2.7, 29.31 -0.95, 29.31 -6.34 M29.31 -6.34 C32.77 -4.73, 36.23 -3.11, 42.91 0 M29.31 -6.34 C34.38 -3.98, 39.44 -1.61, 42.91 0 M42.91 0 C42.91 0, 42.91 0, 42.91 0 M42.91 0 C42.91 0, 42.91 0, 42.91 0" stroke="#1e1e1e" stroke-width="2" fill="none"></path></g></g><mask></mask><g stroke-linecap="round"><g transform="translate(335.0056339997741 452.61493008605646) rotate(0 0 37.965543712786086)"><path d="M0 0 C0 29.16, 0 58.31, 0 75.93 M0 0 C0 28.78, 0 57.56, 0 75.93" stroke="#1e1e1e" stroke-width="2" fill="none"></path></g></g><mask></mask><g stroke-linecap="round"><g transform="translate(279.55915092741907 491.27818856447107) rotate(0 27.667289785489174 0)"><path d="M0 0 C13.8 0, 27.61 0, 55.33 0 M0 0 C22.06 0, 44.11 0, 55.33 0" stroke="#1e1e1e" stroke-width="2" fill="none"></path></g></g><mask></mask><g stroke-linecap="round"><g transform="translate(334.8937304983974 453.0251531219251) rotate(0 24.178805421231857 0)"><path d="M0 0 C15.84 0, 31.67 0, 48.36 0 M0 0 C14.03 0, 28.07 0, 48.36 0" stroke="#1e1e1e" stroke-width="2" fill="none"></path></g><g transform="translate(334.8937304983974 453.0251531219251) rotate(0 24.178805421231857 0)"><path d="M48.36 0 L34.76 6.34 L34.76 -6.34 L48.36 0" stroke="none" stroke-width="0" fill="#1e1e1e" fill-rule="evenodd"></path><path d="M48.36 0 C43.91 2.08, 39.45 4.15, 34.76 6.34 M48.36 0 C44.41 1.84, 40.47 3.68, 34.76 6.34 M34.76 6.34 C34.76 2.41, 34.76 -1.52, 34.76 -6.34 M34.76 6.34 C34.76 3.32, 34.76 0.3, 34.76 -6.34 M34.76 -6.34 C38.38 -4.65, 41.99 -2.97, 48.36 0 M34.76 -6.34 C38.94 -4.39, 43.11 -2.45, 48.36 0 M48.36 0 C48.36 0, 48.36 0, 48.36 0 M48.36 0 C48.36 0, 48.36 0, 48.36 0" stroke="#1e1e1e" stroke-width="2" fill="none"></path></g></g><mask></mask><g stroke-linecap="round"><g transform="translate(334.8937304983974 528.3282983641695) rotate(0 24.178805421231857 0)"><path d="M0 0 C17.08 0, 34.16 0, 48.36 0 M0 0 C14.08 0, 28.16 0, 48.36 0" stroke="#1e1e1e" stroke-width="2" fill="none"></path></g><g transform="translate(334.8937304983974 528.3282983641695) rotate(0 24.178805421231857 0)"><path d="M48.36 0 L34.76 6.34 L34.76 -6.34 L48.36 0" stroke="none" stroke-width="0" fill="#1e1e1e" fill-rule="evenodd"></path><path d="M48.36 0 C43.56 2.24, 38.75 4.48, 34.76 6.34 M48.36 0 C44.4 1.85, 40.44 3.69, 34.76 6.34 M34.76 6.34 C34.76 3.55, 34.76 0.77, 34.76 -6.34 M34.76 6.34 C34.76 2.35, 34.76 -1.63, 34.76 -6.34 M34.76 -6.34 C39.41 -4.17, 44.06 -2.01, 48.36 0 M34.76 -6.34 C38.96 -4.38, 43.17 -2.42, 48.36 0 M48.36 0 C48.36 0, 48.36 0, 48.36 0 M48.36 0 C48.36 0, 48.36 0, 48.36 0" stroke="#1e1e1e" stroke-width="2" fill="none"></path></g></g><mask></mask><g stroke-linecap="round"><g transform="translate(928.1465113114738 494.22876987129507) rotate(0 -22.68942802834647 0)"><path d="M0 0 C-9.98 0, -19.95 0, -45.38 0 M0 0 C-17.31 0, -34.62 0, -45.38 0" stroke="#1e1e1e" stroke-width="2" fill="none"></path></g><g transform="translate(928.1465113114738 494.22876987129507) rotate(0 -22.68942802834647 0)"><path d="M-45.38 0 L-31.78 -6.34 L-31.78 6.34 L-45.38 0" stroke="none" stroke-width="0" fill="#1e1e1e" fill-rule="evenodd"></path><path d="M-45.38 0 C-42.39 -1.39, -39.4 -2.79, -31.78 -6.34 M-45.38 0 C-40.19 -2.42, -35.01 -4.84, -31.78 -6.34 M-31.78 -6.34 C-31.78 -3.51, -31.78 -0.67, -31.78 6.34 M-31.78 -6.34 C-31.78 -1.47, -31.78 3.39, -31.78 6.34 M-31.78 6.34 C-37.22 3.8, -42.66 1.27, -45.38 0 M-31.78 6.34 C-37.14 3.84, -42.49 1.35, -45.38 0 M-45.38 0 C-45.38 0, -45.38 0, -45.38 0 M-45.38 0 C-45.38 0, -45.38 0, -45.38 0" stroke="#1e1e1e" stroke-width="2" fill="none"></path></g></g><mask></mask><g stroke-linecap="round"><g transform="translate(927.289051002068 296.340126769889) rotate(0 -21.03222824347904 0.24743797933507494)"><path d="M0 0 C-9.17 0.11, -18.34 0.22, -42.06 0.49 M0 0 C-16.17 0.19, -32.34 0.38, -42.06 0.49" stroke="#1e1e1e" stroke-width="2" fill="none"></path></g><g transform="translate(927.289051002068 296.340126769889) rotate(0 -21.03222824347904 0.24743797933507494)"><path d="M-42.06 0.49 L-28.55 -6 L-28.4 6.67 L-42.06 0.49" stroke="none" stroke-width="0" fill="#1e1e1e" fill-rule="evenodd"></path><path d="M-42.06 0.49 C-39.12 -0.92, -36.17 -2.34, -28.55 -6 M-42.06 0.49 C-36.87 -2, -31.67 -4.5, -28.55 -6 M-28.55 -6 C-28.51 -2.73, -28.47 0.54, -28.4 6.67 M-28.55 -6 C-28.51 -3.15, -28.48 -0.29, -28.4 6.67 M-28.4 6.67 C-33.84 4.21, -39.29 1.75, -42.06 0.49 M-28.4 6.67 C-32.5 4.82, -36.61 2.96, -42.06 0.49 M-42.06 0.49 C-42.06 0.49, -42.06 0.49, -42.06 0.49 M-42.06 0.49 C-42.06 0.49, -42.06 0.49, -42.06 0.49" stroke="#1e1e1e" stroke-width="2" fill="none"></path></g></g><mask></mask><g stroke-linecap="round"><g transform="translate(736.5605414752428 452.7039136996964) rotate(0 0 44.58894799247088)"><path d="M0 0 C0 18.69, 0 37.37, 0 89.18 M0 0 C0 32.62, 0 65.24, 0 89.18" stroke="#1e1e1e" stroke-width="2" fill="none"></path></g></g><mask></mask><g stroke-linecap="round"><g transform="translate(782.4764350006789 494.34628953981826) rotate(0 -22.948432898269516 0)"><path d="M0 0 C-15.53 0, -31.05 0, -45.9 0 M0 0 C-15.5 0, -31 0, -45.9 0" stroke="#1e1e1e" stroke-width="2" fill="none"></path></g></g><mask></mask><g stroke-linecap="round"><g transform="translate(736.3899127339063 452.4322096181854) rotate(0 -31.767458764133494 -0.18965647023361498)"><path d="M0 0 C-19.74 -0.12, -39.48 -0.24, -63.53 -0.38 M0 0 C-16.51 -0.1, -33.02 -0.2, -63.53 -0.38" stroke="#1e1e1e" stroke-width="2" fill="none"></path></g><g transform="translate(736.3899127339063 452.4322096181854) rotate(0 -31.767458764133494 -0.18965647023361498)"><path d="M-63.53 -0.38 L-49.9 -6.64 L-49.98 6.04 L-63.53 -0.38" stroke="none" stroke-width="0" fill="#1e1e1e" fill-rule="evenodd"></path><path d="M-63.53 -0.38 C-59.3 -2.32, -55.06 -4.27, -49.9 -6.64 M-63.53 -0.38 C-59.99 -2.01, -56.45 -3.63, -49.9 -6.64 M-49.9 -6.64 C-49.93 -2.4, -49.95 1.83, -49.98 6.04 M-49.9 -6.64 C-49.92 -3.42, -49.94 -0.21, -49.98 6.04 M-49.98 6.04 C-54.44 3.93, -58.91 1.81, -63.53 -0.38 M-49.98 6.04 C-55.26 3.54, -60.55 1.03, -63.53 -0.38 M-63.53 -0.38 C-63.53 -0.38, -63.53 -0.38, -63.53 -0.38 M-63.53 -0.38 C-63.53 -0.38, -63.53 -0.38, -63.53 -0.38" stroke="#1e1e1e" stroke-width="2" fill="none"></path></g></g><mask></mask><g stroke-linecap="round"><g transform="translate(736.2002562636725 541.9500635684599) rotate(0 -31.86228699925016 0)"><path d="M0 0 C-23.44 0, -46.88 0, -63.72 0 M0 0 C-17.83 0, -35.66 0, -63.72 0" stroke="#1e1e1e" stroke-width="2" fill="none"></path></g><g transform="translate(736.2002562636725 541.9500635684599) rotate(0 -31.86228699925016 0)"><path d="M-63.72 0 L-50.13 -6.34 L-50.13 6.34 L-63.72 0" stroke="none" stroke-width="0" fill="#1e1e1e" fill-rule="evenodd"></path><path d="M-63.72 0 C-58.72 -2.33, -53.72 -4.66, -50.13 -6.34 M-63.72 0 C-59.92 -1.77, -56.12 -3.55, -50.13 -6.34 M-50.13 -6.34 C-50.13 -3.56, -50.13 -0.78, -50.13 6.34 M-50.13 -6.34 C-50.13 -3.67, -50.13 -1.01, -50.13 6.34 M-50.13 6.34 C-54.82 4.15, -59.5 1.97, -63.72 0 M-50.13 6.34 C-53.64 4.7, -57.16 3.06, -63.72 0 M-63.72 0 C-63.72 0, -63.72 0, -63.72 0 M-63.72 0 C-63.72 0, -63.72 0, -63.72 0" stroke="#1e1e1e" stroke-width="2" fill="none"></path></g></g><mask></mask><g stroke-linecap="round"><g transform="translate(514.114283596186 151.71027301139645) rotate(0 0 37.67586214620354)"><path d="M0 0 C0 19.1, 0 38.2, 0 75.35 M0 0 C0 19.52, 0 39.04, 0 75.35" stroke="#1e1e1e" stroke-width="2" fill="none"></path></g><g transform="translate(514.114283596186 151.71027301139645) rotate(0 0 37.67586214620354)"><path d="M0 75.35 L-6.34 61.76 L6.34 61.76 L0 75.35" stroke="none" stroke-width="0" fill="#1e1e1e" fill-rule="evenodd"></path><path d="M0 75.35 C-1.61 71.91, -3.21 68.46, -6.34 61.76 M0 75.35 C-1.64 71.83, -3.28 68.31, -6.34 61.76 M-6.34 61.76 C-2.34 61.76, 1.65 61.76, 6.34 61.76 M-6.34 61.76 C-2.79 61.76, 0.75 61.76, 6.34 61.76 M6.34 61.76 C4.08 66.59, 1.83 71.43, 0 75.35 M6.34 61.76 C3.85 67.1, 1.35 72.45, 0 75.35 M0 75.35 C0 75.35, 0 75.35, 0 75.35 M0 75.35 C0 75.35, 0 75.35, 0 75.35" stroke="#1e1e1e" stroke-width="2" fill="none"></path></g></g><mask></mask><g stroke-linecap="round"><g transform="translate(332.5374162027464 256.209784353179) rotate(0 0 37.300944378388124)"><path d="M0 0 C0 24.86, 0 49.73, 0 74.6 M0 0 C0 19.09, 0 38.18, 0 74.6" stroke="#1e1e1e" stroke-width="2" fill="none"></path></g></g><mask></mask><g stroke-linecap="round"><g transform="translate(278.5437840086155 293.30464616594065) rotate(0 26.790733531438946 0)"><path d="M0 0 C16.11 0, 32.21 0, 53.58 0 M0 0 C16.81 0, 33.62 0, 53.58 0" stroke="#1e1e1e" stroke-width="2" fill="none"></path></g></g><mask></mask><g stroke-linecap="round"><g transform="translate(332.5374162027464 255.79761922192608) rotate(0 20.19609143139246 0)"><path d="M0 0 C11.93 0, 23.87 0, 40.39 0 M0 0 C9.3 0, 18.61 0, 40.39 0" stroke="#1e1e1e" stroke-width="2" fill="none"></path></g><g transform="translate(332.5374162027464 255.79761922192608) rotate(0 20.19609143139246 0)"><path d="M40.39 0 L26.8 6.34 L26.8 -6.34 L40.39 0" stroke="none" stroke-width="0" fill="#1e1e1e" fill-rule="evenodd"></path><path d="M40.39 0 C36.38 1.87, 32.36 3.75, 26.8 6.34 M40.39 0 C37.26 1.46, 34.13 2.92, 26.8 6.34 M26.8 6.34 C26.8 3.26, 26.8 0.19, 26.8 -6.34 M26.8 6.34 C26.8 1.6, 26.8 -3.15, 26.8 -6.34 M26.8 -6.34 C31.7 -4.05, 36.61 -1.77, 40.39 0 M26.8 -6.34 C30.2 -4.75, 33.61 -3.16, 40.39 0 M40.39 0 C40.39 0, 40.39 0, 40.39 0 M40.39 0 C40.39 0, 40.39 0, 40.39 0" stroke="#1e1e1e" stroke-width="2" fill="none"></path></g></g><mask></mask><g stroke-linecap="round"><g transform="translate(332.38598943704403 330.50918862769856) rotate(0 20.38674052462352 0)"><path d="M0 0 C12.29 0, 24.59 0, 40.77 0 M0 0 C15.13 0, 30.26 0, 40.77 0" stroke="#1e1e1e" stroke-width="2" fill="none"></path></g><g transform="translate(332.38598943704403 330.50918862769856) rotate(0 20.38674052462352 0)"><path d="M40.77 0 L27.18 6.34 L27.18 -6.34 L40.77 0" stroke="none" stroke-width="0" fill="#1e1e1e" fill-rule="evenodd"></path><path d="M40.77 0 C36.67 1.91, 32.57 3.82, 27.18 6.34 M40.77 0 C35.73 2.35, 30.69 4.7, 27.18 6.34 M27.18 6.34 C27.18 1.82, 27.18 -2.71, 27.18 -6.34 M27.18 6.34 C27.18 2.66, 27.18 -1.03, 27.18 -6.34 M27.18 -6.34 C30.18 -4.94, 33.18 -3.54, 40.77 0 M27.18 -6.34 C30.72 -4.69, 34.25 -3.04, 40.77 0 M40.77 0 C40.77 0, 40.77 0, 40.77 0 M40.77 0 C40.77 0, 40.77 0, 40.77 0" stroke="#1e1e1e" stroke-width="2" fill="none"></path></g></g><mask></mask><g stroke-linecap="round"><g transform="translate(745.8522927549119 253.359061319205) rotate(0 0 43.46277664613518)"><path d="M0 0 C0 23.41, 0 46.82, 0 86.93 M0 0 C0 20.08, 0 40.16, 0 86.93" stroke="#1e1e1e" stroke-width="2" fill="none"></path></g></g><mask></mask><g stroke-linecap="round"><g transform="translate(783.0549986906984 295.2121054969648) rotate(0 -18.24363464158762 0)"><path d="M0 0 C-8.7 0, -17.4 0, -36.49 0 M0 0 C-11.45 0, -22.9 0, -36.49 0" stroke="#1e1e1e" stroke-width="2" fill="none"></path></g></g><mask></mask><g stroke-linecap="round"><g transform="translate(745.8522927549119 253.71677964551066) rotate(0 -41.137607525148496 0)"><path d="M0 0 C-30.38 0, -60.76 0, -82.28 0 M0 0 C-28.74 0, -57.49 0, -82.28 0" stroke="#1e1e1e" stroke-width="2" fill="none"></path></g><g transform="translate(745.8522927549119 253.71677964551066) rotate(0 -41.137607525148496 0)"><path d="M-82.28 0 L-68.68 -6.34 L-68.68 6.34 L-82.28 0" stroke="none" stroke-width="0" fill="#1e1e1e" fill-rule="evenodd"></path><path d="M-82.28 0 C-77.26 -2.34, -72.24 -4.68, -68.68 -6.34 M-82.28 0 C-77.53 -2.21, -72.78 -4.43, -68.68 -6.34 M-68.68 -6.34 C-68.68 -1.98, -68.68 2.38, -68.68 6.34 M-68.68 -6.34 C-68.68 -3.04, -68.68 0.27, -68.68 6.34 M-68.68 6.34 C-74.11 3.81, -79.54 1.27, -82.28 0 M-68.68 6.34 C-73.6 4.05, -78.52 1.75, -82.28 0 M-82.28 0 C-82.28 0, -82.28 0, -82.28 0 M-82.28 0 C-82.28 0, -82.28 0, -82.28 0" stroke="#1e1e1e" stroke-width="2" fill="none"></path></g></g><mask></mask><g stroke-linecap="round"><g transform="translate(745.8522927549119 340.642332937781) rotate(0 -40.42217087253721 0)"><path d="M0 0 C-19.62 0, -39.23 0, -80.84 0 M0 0 C-18.63 0, -37.26 0, -80.84 0" stroke="#1e1e1e" stroke-width="2" fill="none"></path></g><g transform="translate(745.8522927549119 340.642332937781) rotate(0 -40.42217087253721 0)"><path d="M-80.84 0 L-67.25 -6.34 L-67.25 6.34 L-80.84 0" stroke="none" stroke-width="0" fill="#1e1e1e" fill-rule="evenodd"></path><path d="M-80.84 0 C-77.55 -1.54, -74.25 -3.08, -67.25 -6.34 M-80.84 0 C-77.71 -1.46, -74.58 -2.92, -67.25 -6.34 M-67.25 -6.34 C-67.25 -3.18, -67.25 -0.01, -67.25 6.34 M-67.25 -6.34 C-67.25 -2.11, -67.25 2.12, -67.25 6.34 M-67.25 6.34 C-71.18 4.51, -75.11 2.68, -80.84 0 M-67.25 6.34 C-70.27 4.93, -73.29 3.52, -80.84 0 M-80.84 0 C-80.84 0, -80.84 0, -80.84 0 M-80.84 0 C-80.84 0, -80.84 0, -80.84 0" stroke="#1e1e1e" stroke-width="2" fill="none"></path></g></g><mask></mask><g stroke-linecap="round" transform="translate(638.8833597697663 379.78598892347236) rotate(0 61.65390495031329 18.719997542669375)"><path d="M0 0 L123.31 0 L123.31 37.44 L0 37.44" stroke="none" stroke-width="0" fill="#ffd8a8"></path><path d="M0 0 C40.79 0, 81.58 0, 123.31 0 M0 0 C25.21 0, 50.42 0, 123.31 0 M123.31 0 C123.31 10.5, 123.31 21.01, 123.31 37.44 M123.31 0 C123.31 11.78, 123.31 23.56, 123.31 37.44 M123.31 37.44 C86.56 37.44, 49.81 37.44, 0 37.44 M123.31 37.44 C92.59 37.44, 61.88 37.44, 0 37.44 M0 37.44 C0 27.58, 0 17.72, 0 0 M0 37.44 C0 28.9, 0 20.37, 0 0" stroke="#f08c00" stroke-width="2" fill="none"></path></g><g transform="translate(659.5216397200796 386.50598646614174) rotate(0 41.015625 12)"><text x="41.015625" y="0" font-family="Cascadia, Segoe UI Emoji" font-size="20px" fill="#1e1e1e" text-anchor="middle" style="white-space: pre;" direction="ltr" dominant-baseline="text-before-edge">IMapper</text></g><g stroke-linecap="round"><g transform="translate(638.0694468331284 397.285117061185) rotate(0 -40.69564683189003 14.650432859480475)"><path d="M0 0 C-23.88 -0.12, -47.77 -0.24, -81.39 -0.41 M0 0 C-17.19 -0.09, -34.39 -0.17, -81.39 -0.41 M-81.39 -0.41 C-81.39 7.66, -81.39 15.72, -81.39 29.71 M-81.39 -0.41 C-81.39 7.4, -81.39 15.2, -81.39 29.71" stroke="#1e1e1e" stroke-width="2" fill="none"></path></g><g transform="translate(638.0694468331284 397.285117061185) rotate(0 -40.69564683189003 14.650432859480475)"><path d="M-81.39 29.71 L-87.73 16.11 L-75.05 16.11 L-81.39 29.71" stroke="none" stroke-width="0" fill="#1e1e1e" fill-rule="evenodd"></path><path d="M-81.39 29.71 C-83.25 25.72, -85.11 21.73, -87.73 16.11 M-81.39 29.71 C-82.73 26.84, -84.07 23.96, -87.73 16.11 M-87.73 16.11 C-84.33 16.11, -80.94 16.11, -75.05 16.11 M-87.73 16.11 C-84.44 16.11, -81.16 16.11, -75.05 16.11 M-75.05 16.11 C-76.8 19.85, -78.54 23.59, -81.39 29.71 M-75.05 16.11 C-77.26 20.86, -79.48 25.6, -81.39 29.71 M-81.39 29.71 C-81.39 29.71, -81.39 29.71, -81.39 29.71 M-81.39 29.71 C-81.39 29.71, -81.39 29.71, -81.39 29.71" stroke="#1e1e1e" stroke-width="2" fill="none"></path></g></g><mask></mask><g stroke-linecap="round"><g transform="translate(1406.1657530296488 448.62937308765333) rotate(0 0 39.71290898748555)"><path d="M0 0 C0 27.45, 0 54.91, 0 79.43 M0 0 C0 30.93, 0 61.86, 0 79.43" stroke="#1e1e1e" stroke-width="2" fill="none"></path></g></g><mask></mask><g stroke-linecap="round"><g transform="translate(1406.0248089479132 528.1079750010601) rotate(0 -58.12976283658793 0)"><path d="M0 0 C-42.07 0, -84.15 0, -116.26 0 M0 0 C-40.76 0, -81.52 0, -116.26 0" stroke="#1e1e1e" stroke-width="2" fill="none"></path></g><g transform="translate(1406.0248089479132 528.1079750010601) rotate(0 -58.12976283658793 0)"><path d="M-116.26 0 L-102.66 -6.34 L-102.66 6.34 L-116.26 0" stroke="none" stroke-width="0" fill="#1e1e1e" fill-rule="evenodd"></path><path d="M-116.26 0 C-111.34 -2.29, -106.42 -4.59, -102.66 -6.34 M-116.26 0 C-111.49 -2.22, -106.73 -4.44, -102.66 -6.34 M-102.66 -6.34 C-102.66 -1.31, -102.66 3.72, -102.66 6.34 M-102.66 -6.34 C-102.66 -3.44, -102.66 -0.55, -102.66 6.34 M-102.66 6.34 C-106.46 4.57, -110.25 2.8, -116.26 0 M-102.66 6.34 C-105.52 5.01, -108.38 3.67, -116.26 0 M-116.26 0 C-116.26 0, -116.26 0, -116.26 0 M-116.26 0 C-116.26 0, -116.26 0, -116.26 0" stroke="#1e1e1e" stroke-width="2" fill="none"></path></g></g><mask></mask><g stroke-linecap="round"><g transform="translate(1406.0248089479132 448.59532937717154) rotate(0 -58.288154560938324 0)"><path d="M0 0 C-37.48 0, -74.97 0, -116.58 0 M0 0 C-41.65 0, -83.29 0, -116.58 0" stroke="#1e1e1e" stroke-width="2" fill="none"></path></g><g transform="translate(1406.0248089479132 448.59532937717154) rotate(0 -58.288154560938324 0)"><path d="M-116.58 0 L-102.98 -6.34 L-102.98 6.34 L-116.58 0" stroke="none" stroke-width="0" fill="#1e1e1e" fill-rule="evenodd"></path><path d="M-116.58 0 C-112.21 -2.04, -107.83 -4.08, -102.98 -6.34 M-116.58 0 C-111.72 -2.26, -106.86 -4.53, -102.98 -6.34 M-102.98 -6.34 C-102.98 -1.95, -102.98 2.43, -102.98 6.34 M-102.98 -6.34 C-102.98 -2.05, -102.98 2.23, -102.98 6.34 M-102.98 6.34 C-106.12 4.88, -109.25 3.42, -116.58 0 M-102.98 6.34 C-106.96 4.49, -110.93 2.63, -116.58 0 M-116.58 0 C-116.58 0, -116.58 0, -116.58 0 M-116.58 0 C-116.58 0, -116.58 0, -116.58 0" stroke="#1e1e1e" stroke-width="2" fill="none"></path></g></g><mask></mask><g stroke-linecap="round"><g transform="translate(1406.0248089479132 487.2429101186633) rotate(0 35.00457108143303 0)"><path d="M0 0 C22.68 0, 45.36 0, 70.01 0 M0 0 C14.44 0, 28.88 0, 70.01 0" stroke="#1e1e1e" stroke-width="2" fill="none"></path></g></g><mask></mask></svg>