<svg version="1.1" xmlns="http://www.w3.org/2000/svg" viewBox="0 0 1751.6232627925017 649.7150205921777" width="5254.869788377505" height="1949.145061776533">
  <!-- svg-source:excalidraw -->
  
  <defs>
    <style class="style-fonts">
      @font-face {
        font-family: "Virgil";
        src: url("https://excalidraw.com/Virgil.woff2");
      }
      @font-face {
        font-family: "Cascadia";
        src: url("https://excalidraw.com/Cascadia.woff2");
      }
      @font-face {
        font-family: "Assistant";
        src: url("https://excalidraw.com/Assistant-Regular.woff2");
      }
    </style>
    
  </defs>
  <rect x="0" y="0" width="1751.6232627925017" height="649.7150205921777" fill="#ffffff"></rect><g stroke-linecap="round" transform="translate(10 10) rotate(0 865.8116313962508 314.85751029608883)"><path d="M32 0 C694.16 0, 1356.31 0, 1699.62 0 C1720.96 0, 1731.62 10.67, 1731.62 32 C1731.62 199.64, 1731.62 367.28, 1731.62 597.72 C1731.62 619.05, 1720.96 629.72, 1699.62 629.72 C1048.39 629.72, 397.16 629.72, 32 629.72 C10.67 629.72, 0 619.05, 0 597.72 C0 413.61, 0 229.51, 0 32 C0 10.67, 10.67 0, 32 0" stroke="none" stroke-width="0" fill="#e7f5ff"></path><path d="M32 0 C516.34 0, 1000.67 0, 1699.62 0 M1699.62 0 C1720.96 0, 1731.62 10.67, 1731.62 32 M1731.62 32 C1731.62 198.97, 1731.62 365.93, 1731.62 597.72 M1731.62 597.72 C1731.62 619.05, 1720.96 629.72, 1699.62 629.72 M1699.62 629.72 C1316.94 629.72, 934.25 629.72, 32 629.72 M32 629.72 C10.67 629.72, 0 619.05, 0 597.72 M0 597.72 C0 394.54, 0 191.36, 0 32 M0 32 C0 10.67, 10.67 0, 32 0" stroke="#1e1e1e" stroke-width="2.5" fill="none" stroke-dasharray="8 10"></path></g><g transform="translate(46.058662657323566 41.75133482945523) rotate(0 246.09375 16.80000000000001)"><text x="492.1875" y="0" font-family="Cascadia, Segoe UI Emoji" font-size="28px" fill="#1e1e1e" text-anchor="end" style="white-space: pre;" direction="ltr" dominant-baseline="text-before-edge">Serviços da Camada Application</text></g><g stroke-linecap="round" transform="translate(50.14634511761619 249.54895817195353) rotate(0 129 65.00000000000003)"><path d="M32 0 C94.63 0, 157.25 0, 226 0 C247.33 0, 258 10.67, 258 32 C258 58.29, 258 84.58, 258 98 C258 119.33, 247.33 130, 226 130 C186.31 130, 146.61 130, 32 130 C10.67 130, 0 119.33, 0 98 C0 74.45, 0 50.9, 0 32 C0 10.67, 10.67 0, 32 0" stroke="none" stroke-width="0" fill="#f08c00"></path><path d="M32 0 C79.1 0, 126.2 0, 226 0 M32 0 C108.74 0, 185.47 0, 226 0 M226 0 C247.33 0, 258 10.67, 258 32 M226 0 C247.33 0, 258 10.67, 258 32 M258 32 C258 47.09, 258 62.17, 258 98 M258 32 C258 53.91, 258 75.82, 258 98 M258 98 C258 119.33, 247.33 130, 226 130 M258 98 C258 119.33, 247.33 130, 226 130 M226 130 C160.04 130, 94.07 130, 32 130 M226 130 C154.88 130, 83.77 130, 32 130 M32 130 C10.67 130, 0 119.33, 0 98 M32 130 C10.67 130, 0 119.33, 0 98 M0 98 C0 73.08, 0 48.17, 0 32 M0 98 C0 73.37, 0 48.73, 0 32 M0 32 C0 10.67, 10.67 0, 32 0 M0 32 C0 10.67, 10.67 0, 32 0" stroke="#ffffff" stroke-width="4" fill="none"></path></g><g transform="translate(108.83384511761619 302.5489581719535) rotate(0 70.3125 12)"><text x="70.3125" y="0" font-family="Cascadia, Segoe UI Emoji" font-size="20px" fill="#ffffff" text-anchor="middle" style="white-space: pre;" direction="ltr" dominant-baseline="text-before-edge">Apresentação</text></g><g stroke-linecap="round" transform="translate(398.1163553721959 296.0957198594798) rotate(0 44.96086522244457 18.453238312473843)"><path d="M0 0 L89.92 0 L89.92 36.91 L0 36.91" stroke="none" stroke-width="0" fill="#228be6"></path><path d="M0 0 C19.13 0, 38.25 0, 89.92 0 M0 0 C24.71 0, 49.42 0, 89.92 0 M89.92 0 C89.92 7.54, 89.92 15.08, 89.92 36.91 M89.92 0 C89.92 11.75, 89.92 23.5, 89.92 36.91 M89.92 36.91 C60.74 36.91, 31.57 36.91, 0 36.91 M89.92 36.91 C62.13 36.91, 34.34 36.91, 0 36.91 M0 36.91 C0 24.63, 0 12.36, 0 0 M0 36.91 C0 26.6, 0 16.3, 0 0" stroke="#ffffff" stroke-width="2" fill="none"></path></g><g transform="translate(429.0147205946405 304.94895817195356) rotate(0 14.0625 9.600000000000023)"><text x="14.0625" y="0" font-family="Cascadia, Segoe UI Emoji" font-size="16px" fill="#ffffff" text-anchor="middle" style="white-space: pre;" direction="ltr" dominant-baseline="text-before-edge">DTO</text></g><g stroke-opacity="0" fill-opacity="0" stroke-linecap="round" transform="translate(1576.8116199314834 284.31974973525405) rotate(0 58.37866158183556 58.378661581835615)"><path d="M116.76 58.38 C116.76 60.72, 116.61 63.09, 116.33 65.42 C116.05 67.74, 115.62 70.07, 115.06 72.35 C114.5 74.63, 113.8 76.89, 112.96 79.08 C112.13 81.27, 111.16 83.43, 110.07 85.51 C108.98 87.59, 107.76 89.61, 106.42 91.54 C105.09 93.47, 103.63 95.34, 102.08 97.09 C100.52 98.85, 98.85 100.52, 97.09 102.08 C95.34 103.63, 93.47 105.09, 91.54 106.42 C89.61 107.76, 87.59 108.98, 85.51 110.07 C83.43 111.16, 81.27 112.13, 79.08 112.96 C76.89 113.8, 74.63 114.5, 72.35 115.06 C70.07 115.62, 67.74 116.05, 65.42 116.33 C63.09 116.61, 60.72 116.76, 58.38 116.76 C56.03 116.76, 53.67 116.61, 51.34 116.33 C49.01 116.05, 46.69 115.62, 44.41 115.06 C42.13 114.5, 39.87 113.8, 37.68 112.96 C35.48 112.13, 33.33 111.16, 31.25 110.07 C29.17 108.98, 27.15 107.76, 25.22 106.42 C23.29 105.09, 21.42 103.63, 19.67 102.08 C17.91 100.52, 16.24 98.85, 14.68 97.09 C13.13 95.34, 11.67 93.47, 10.33 91.54 C9 89.61, 7.78 87.59, 6.69 85.51 C5.6 83.43, 4.63 81.27, 3.79 79.08 C2.96 76.89, 2.26 74.63, 1.7 72.35 C1.14 70.07, 0.71 67.74, 0.43 65.42 C0.14 63.09, 0 60.72, 0 58.38 C0 56.03, 0.14 53.67, 0.43 51.34 C0.71 49.01, 1.14 46.69, 1.7 44.41 C2.26 42.13, 2.96 39.87, 3.79 37.68 C4.63 35.48, 5.6 33.33, 6.69 31.25 C7.78 29.17, 9 27.15, 10.33 25.22 C11.67 23.29, 13.13 21.42, 14.68 19.67 C16.24 17.91, 17.91 16.24, 19.67 14.68 C21.42 13.13, 23.29 11.67, 25.22 10.33 C27.15 9, 29.17 7.78, 31.25 6.69 C33.33 5.6, 35.48 4.63, 37.68 3.79 C39.87 2.96, 42.13 2.26, 44.41 1.7 C46.69 1.14, 49.01 0.71, 51.34 0.43 C53.67 0.14, 56.03 0, 58.38 0 C60.72 0, 63.09 0.14, 65.42 0.43 C67.74 0.71, 70.07 1.14, 72.35 1.7 C74.63 2.26, 76.89 2.96, 79.08 3.79 C81.27 4.63, 83.43 5.6, 85.51 6.69 C87.59 7.78, 89.61 9, 91.54 10.33 C93.47 11.67, 95.34 13.13, 97.09 14.68 C98.85 16.24, 100.52 17.91, 102.08 19.67 C103.63 21.42, 105.09 23.29, 106.42 25.22 C107.76 27.15, 108.98 29.17, 110.07 31.25 C111.16 33.33, 112.13 35.48, 112.96 37.68 C113.8 39.87, 114.5 42.13, 115.06 44.41 C115.62 46.69, 116.05 49.01, 116.33 51.34 C116.61 53.67, 116.76 56.03, 116.76 58.38" stroke="none" stroke-width="0" fill="#ffd43b"></path><path d="M116.76 58.38 C116.76 60.72, 116.61 63.09, 116.33 65.42 C116.05 67.74, 115.62 70.07, 115.06 72.35 C114.5 74.63, 113.8 76.89, 112.96 79.08 C112.13 81.27, 111.16 83.43, 110.07 85.51 C108.98 87.59, 107.76 89.61, 106.42 91.54 C105.09 93.47, 103.63 95.34, 102.08 97.09 C100.52 98.85, 98.85 100.52, 97.09 102.08 C95.34 103.63, 93.47 105.09, 91.54 106.42 C89.61 107.76, 87.59 108.98, 85.51 110.07 C83.43 111.16, 81.27 112.13, 79.08 112.96 C76.89 113.8, 74.63 114.5, 72.35 115.06 C70.07 115.62, 67.74 116.05, 65.42 116.33 C63.09 116.61, 60.72 116.76, 58.38 116.76 C56.03 116.76, 53.67 116.61, 51.34 116.33 C49.01 116.05, 46.69 115.62, 44.41 115.06 C42.13 114.5, 39.87 113.8, 37.68 112.96 C35.48 112.13, 33.33 111.16, 31.25 110.07 C29.17 108.98, 27.15 107.76, 25.22 106.42 C23.29 105.09, 21.42 103.63, 19.67 102.08 C17.91 100.52, 16.24 98.85, 14.68 97.09 C13.13 95.34, 11.67 93.47, 10.33 91.54 C9 89.61, 7.78 87.59, 6.69 85.51 C5.6 83.43, 4.63 81.27, 3.79 79.08 C2.96 76.89, 2.26 74.63, 1.7 72.35 C1.14 70.07, 0.71 67.74, 0.43 65.42 C0.14 63.09, 0 60.72, 0 58.38 C0 56.03, 0.14 53.67, 0.43 51.34 C0.71 49.01, 1.14 46.69, 1.7 44.41 C2.26 42.13, 2.96 39.87, 3.79 37.68 C4.63 35.48, 5.6 33.33, 6.69 31.25 C7.78 29.17, 9 27.15, 10.33 25.22 C11.67 23.29, 13.13 21.42, 14.68 19.67 C16.24 17.91, 17.91 16.24, 19.67 14.68 C21.42 13.13, 23.29 11.67, 25.22 10.33 C27.15 9, 29.17 7.78, 31.25 6.69 C33.33 5.6, 35.48 4.63, 37.68 3.79 C39.87 2.96, 42.13 2.26, 44.41 1.7 C46.69 1.14, 49.01 0.71, 51.34 0.43 C53.67 0.14, 56.03 0, 58.38 0 C60.72 0, 63.09 0.14, 65.42 0.43 C67.74 0.71, 70.07 1.14, 72.35 1.7 C74.63 2.26, 76.89 2.96, 79.08 3.79 C81.27 4.63, 83.43 5.6, 85.51 6.69 C87.59 7.78, 89.61 9, 91.54 10.33 C93.47 11.67, 95.34 13.13, 97.09 14.68 C98.85 16.24, 100.52 17.91, 102.08 19.67 C103.63 21.42, 105.09 23.29, 106.42 25.22 C107.76 27.15, 108.98 29.17, 110.07 31.25 C111.16 33.33, 112.13 35.48, 112.96 37.68 C113.8 39.87, 114.5 42.13, 115.06 44.41 C115.62 46.69, 116.05 49.01, 116.33 51.34 C116.61 53.67, 116.76 56.03, 116.76 58.38" stroke="#1e1e1e" stroke-width="1" fill="none"></path></g><g transform="translate(1578.4836410047421 361.0562369331957) rotate(0 58.59375 12)"><text x="117.1875" y="0" font-family="Cascadia, Segoe UI Emoji" font-size="20px" fill="#1e1e1e" text-anchor="end" style="white-space: pre;" direction="ltr" dominant-baseline="text-before-edge">SQL Server</text></g><g stroke-linecap="round"><g transform="translate(1586.4269938171162 269.7945107646578) rotate(0 47.57010446485697 24.52965545286179)" fill-rule="evenodd"><path d="M0 0 C0 10.46, -0.61 50.4, 0 62.76 C0.61 75.12, 0.89 70.56, 3.64 74.16 C6.39 77.76, 11.33 81.69, 16.5 84.36 C21.68 87.03, 27.79 89.33, 34.71 90.18 C41.62 91.03, 50.81 90.91, 58.01 89.45 C65.21 88, 72.41 84.36, 77.91 81.44 C83.41 78.53, 88.34 75.46, 91.01 71.98 C93.68 68.5, 93.28 68.66, 93.93 60.57 C94.57 52.48, 94.7 35.69, 94.9 23.44 C95.1 11.18, 95.22 -4.76, 95.14 -12.97 C95.06 -21.18, 96.35 -22.23, 94.41 -25.83 C92.47 -29.43, 89.36 -32.02, 83.49 -34.57 C77.63 -37.12, 67.59 -40.07, 59.22 -41.12 C50.85 -42.17, 40.94 -41.85, 33.25 -40.88 C25.56 -39.91, 18.24 -37.72, 13.11 -35.3 C7.97 -32.87, 4.57 -29.76, 2.43 -26.32 C0.28 -22.88, 0.65 -19.05, 0.24 -14.67 C-0.16 -10.28, 0.04 -2.44, 0 0" stroke="none" stroke-width="0" fill="#ffd43b" fill-rule="evenodd"></path><path d="M0 0 C0 10.46, -0.61 50.4, 0 62.76 C0.61 75.12, 0.89 70.56, 3.64 74.16 C6.39 77.76, 11.33 81.69, 16.5 84.36 C21.68 87.03, 27.79 89.33, 34.71 90.18 C41.62 91.03, 50.81 90.91, 58.01 89.45 C65.21 88, 72.41 84.36, 77.91 81.44 C83.41 78.53, 88.34 75.46, 91.01 71.98 C93.68 68.5, 93.28 68.66, 93.93 60.57 C94.57 52.48, 94.7 35.69, 94.9 23.44 C95.1 11.18, 95.22 -4.76, 95.14 -12.97 C95.06 -21.18, 96.35 -22.23, 94.41 -25.83 C92.47 -29.43, 89.36 -32.02, 83.49 -34.57 C77.63 -37.12, 67.59 -40.07, 59.22 -41.12 C50.85 -42.17, 40.94 -41.85, 33.25 -40.88 C25.56 -39.91, 18.24 -37.72, 13.11 -35.3 C7.97 -32.87, 4.57 -29.76, 2.43 -26.32 C0.28 -22.88, 0.65 -19.05, 0.24 -14.67 C-0.16 -10.28, 0.04 -2.44, 0 0 M0 0 C0 10.46, -0.61 50.4, 0 62.76 C0.61 75.12, 0.89 70.56, 3.64 74.16 C6.39 77.76, 11.33 81.69, 16.5 84.36 C21.68 87.03, 27.79 89.33, 34.71 90.18 C41.62 91.03, 50.81 90.91, 58.01 89.45 C65.21 88, 72.41 84.36, 77.91 81.44 C83.41 78.53, 88.34 75.46, 91.01 71.98 C93.68 68.5, 93.28 68.66, 93.93 60.57 C94.57 52.48, 94.7 35.69, 94.9 23.44 C95.1 11.18, 95.22 -4.76, 95.14 -12.97 C95.06 -21.18, 96.35 -22.23, 94.41 -25.83 C92.47 -29.43, 89.36 -32.02, 83.49 -34.57 C77.63 -37.12, 67.59 -40.07, 59.22 -41.12 C50.85 -42.17, 40.94 -41.85, 33.25 -40.88 C25.56 -39.91, 18.24 -37.72, 13.11 -35.3 C7.97 -32.87, 4.57 -29.76, 2.43 -26.32 C0.28 -22.88, 0.65 -19.05, 0.24 -14.67 C-0.16 -10.28, 0.04 -2.44, 0 0" stroke="#1e1e1e" stroke-width="1" fill="none"></path></g></g><mask></mask><g stroke-linecap="round"><g transform="translate(1587.1551076609655 248.08893713305423) rotate(0 47.448752157548824 9.82953689197302)"><path d="M0 0 C1.7 1.9, 4.57 8.25, 10.19 11.41 C15.82 14.56, 25.65 17.56, 33.74 18.93 C41.83 20.31, 50.89 20.63, 58.73 19.66 C66.58 18.69, 74.79 15.98, 80.82 13.11 C86.85 10.23, 92.55 4.21, 94.9 2.43 M0 0 C1.7 1.9, 4.57 8.25, 10.19 11.41 C15.82 14.56, 25.65 17.56, 33.74 18.93 C41.83 20.31, 50.89 20.63, 58.73 19.66 C66.58 18.69, 74.79 15.98, 80.82 13.11 C86.85 10.23, 92.55 4.21, 94.9 2.43" stroke="#1e1e1e" stroke-width="1" fill="none"></path></g></g><mask></mask><g stroke-linecap="round"><g transform="translate(1586.3758594998274 268.63072654816966) rotate(0 47.448752157548824 9.829536891972992)"><path d="M0 0 C1.7 1.9, 4.57 8.25, 10.19 11.41 C15.82 14.56, 25.65 17.56, 33.74 18.93 C41.83 20.31, 50.89 20.63, 58.73 19.66 C66.58 18.69, 74.79 15.98, 80.82 13.11 C86.85 10.23, 92.55 4.21, 94.9 2.43 M0 0 C1.7 1.9, 4.57 8.25, 10.19 11.41 C15.82 14.56, 25.65 17.56, 33.74 18.93 C41.83 20.31, 50.89 20.63, 58.73 19.66 C66.58 18.69, 74.79 15.98, 80.82 13.11 C86.85 10.23, 92.55 4.21, 94.9 2.43" stroke="#1e1e1e" stroke-width="1" fill="none"></path></g></g><mask></mask><g stroke-linecap="round"><g transform="translate(1585.7087757152624 283.5132499634985) rotate(0 47.448752157548824 9.829536891972992)"><path d="M0 0 C1.7 1.9, 4.57 8.25, 10.19 11.41 C15.82 14.56, 25.65 17.56, 33.74 18.93 C41.83 20.31, 50.89 20.63, 58.73 19.66 C66.58 18.69, 74.79 15.98, 80.82 13.11 C86.85 10.23, 92.55 4.21, 94.9 2.43 M0 0 C1.7 1.9, 4.57 8.25, 10.19 11.41 C15.82 14.56, 25.65 17.56, 33.74 18.93 C41.83 20.31, 50.89 20.63, 58.73 19.66 C66.58 18.69, 74.79 15.98, 80.82 13.11 C86.85 10.23, 92.55 4.21, 94.9 2.43" stroke="#1e1e1e" stroke-width="1" fill="none"></path></g></g><mask></mask><g stroke-linecap="round"><g transform="translate(312.45382842061906 314.1255585328754) rotate(0 41.582052333550735 0.42339963907812717)"><path d="M0 0 C19.34 0.2, 38.68 0.39, 83.16 0.85 M0 0 C29.79 0.3, 59.58 0.61, 83.16 0.85" stroke="#1e1e1e" stroke-width="2" fill="none"></path></g><g transform="translate(312.45382842061906 314.1255585328754) rotate(0 41.582052333550735 0.42339963907812717)"><path d="M0 0 L13.66 -6.2 L13.53 6.48 L0 0" stroke="none" stroke-width="0" fill="#1e1e1e" fill-rule="evenodd"></path><path d="M0 0 C3.18 -1.44, 6.35 -2.88, 13.66 -6.2 M0 0 C4.89 -2.22, 9.79 -4.44, 13.66 -6.2 M13.66 -6.2 C13.61 -1.58, 13.56 3.04, 13.53 6.48 M13.66 -6.2 C13.61 -1.14, 13.56 3.91, 13.53 6.48 M13.53 6.48 C9.41 4.51, 5.3 2.54, 0 0 M13.53 6.48 C9.14 4.38, 4.75 2.27, 0 0 M0 0 C0 0, 0 0, 0 0 M0 0 C0 0, 0 0, 0 0" stroke="#1e1e1e" stroke-width="2" fill="none"></path></g><g transform="translate(312.45382842061906 314.1255585328754) rotate(0 41.582052333550735 0.42339963907812717)"><path d="M83.16 0.85 L69.51 7.05 L69.63 -5.63 L83.16 0.85" stroke="none" stroke-width="0" fill="#1e1e1e" fill-rule="evenodd"></path><path d="M83.16 0.85 C79.99 2.29, 76.81 3.73, 69.51 7.05 M83.16 0.85 C78.27 3.07, 73.38 5.29, 69.51 7.05 M69.51 7.05 C69.55 2.43, 69.6 -2.19, 69.63 -5.63 M69.51 7.05 C69.56 1.99, 69.61 -3.06, 69.63 -5.63 M69.63 -5.63 C73.75 -3.66, 77.87 -1.69, 83.16 0.85 M69.63 -5.63 C74.02 -3.53, 78.41 -1.43, 83.16 0.85 M83.16 0.85 C83.16 0.85, 83.16 0.85, 83.16 0.85 M83.16 0.85 C83.16 0.85, 83.16 0.85, 83.16 0.85" stroke="#1e1e1e" stroke-width="2" fill="none"></path></g></g><mask></mask><g stroke-linecap="round" transform="translate(579.3558157480891 249.54895817195353) rotate(0 129 65.00000000000003)"><path d="M32 0 C97.37 0, 162.74 0, 226 0 C247.33 0, 258 10.67, 258 32 C258 54.21, 258 76.41, 258 98 C258 119.33, 247.33 130, 226 130 C151.95 130, 77.9 130, 32 130 C10.67 130, 0 119.33, 0 98 C0 74.8, 0 51.6, 0 32 C0 10.67, 10.67 0, 32 0" stroke="none" stroke-width="0" fill="#ff8787"></path><path d="M32 0 C75.22 0, 118.43 0, 226 0 M32 0 C99.04 0, 166.08 0, 226 0 M226 0 C247.33 0, 258 10.67, 258 32 M226 0 C247.33 0, 258 10.67, 258 32 M258 32 C258 48.37, 258 64.75, 258 98 M258 32 C258 51.84, 258 71.69, 258 98 M258 98 C258 119.33, 247.33 130, 226 130 M258 98 C258 119.33, 247.33 130, 226 130 M226 130 C167.85 130, 109.7 130, 32 130 M226 130 C152.48 130, 78.97 130, 32 130 M32 130 C10.67 130, 0 119.33, 0 98 M32 130 C10.67 130, 0 119.33, 0 98 M0 98 C0 84.36, 0 70.71, 0 32 M0 98 C0 75.23, 0 52.45, 0 32 M0 32 C0 10.67, 10.67 0, 32 0 M0 32 C0 10.67, 10.67 0, 32 0" stroke="#1e1e1e" stroke-width="2" fill="none"></path></g><g transform="translate(667.3401907480891 302.5489581719535) rotate(0 41.015625 12)"><text x="41.015625" y="0" font-family="Cascadia, Segoe UI Emoji" font-size="20px" fill="#1e1e1e" text-anchor="middle" style="white-space: pre;" direction="ltr" dominant-baseline="text-before-edge">Service</text></g><g stroke-linecap="round"><g transform="translate(492.17859221574906 314.70283406426927) rotate(0 41.18345565678163 -0.153875892315682)"><path d="M0 0 C25.51 -0.1, 51.02 -0.19, 82.37 -0.31 M0 0 C16.87 -0.06, 33.73 -0.13, 82.37 -0.31" stroke="#1e1e1e" stroke-width="2" fill="none"></path></g><g transform="translate(492.17859221574906 314.70283406426927) rotate(0 41.18345565678163 -0.153875892315682)"><path d="M0 0 L13.57 -6.39 L13.62 6.29 L0 0" stroke="none" stroke-width="0" fill="#1e1e1e" fill-rule="evenodd"></path><path d="M0 0 C4.2 -1.98, 8.41 -3.96, 13.57 -6.39 M0 0 C2.78 -1.31, 5.56 -2.62, 13.57 -6.39 M13.57 -6.39 C13.59 -2.5, 13.6 1.39, 13.62 6.29 M13.57 -6.39 C13.58 -2.89, 13.6 0.62, 13.62 6.29 M13.62 6.29 C8.4 3.88, 3.18 1.47, 0 0 M13.62 6.29 C10.17 4.69, 6.71 3.1, 0 0 M0 0 C0 0, 0 0, 0 0 M0 0 C0 0, 0 0, 0 0" stroke="#1e1e1e" stroke-width="2" fill="none"></path></g><g transform="translate(492.17859221574906 314.70283406426927) rotate(0 41.18345565678163 -0.153875892315682)"><path d="M82.37 -0.31 L68.8 6.08 L68.75 -6.6 L82.37 -0.31" stroke="none" stroke-width="0" fill="#1e1e1e" fill-rule="evenodd"></path><path d="M82.37 -0.31 C78.16 1.67, 73.96 3.65, 68.8 6.08 M82.37 -0.31 C79.59 1, 76.81 2.31, 68.8 6.08 M68.8 6.08 C68.78 2.19, 68.77 -1.69, 68.75 -6.6 M68.8 6.08 C68.78 2.58, 68.77 -0.93, 68.75 -6.6 M68.75 -6.6 C73.97 -4.19, 79.19 -1.77, 82.37 -0.31 M68.75 -6.6 C72.2 -5, 75.65 -3.41, 82.37 -0.31 M82.37 -0.31 C82.37 -0.31, 82.37 -0.31, 82.37 -0.31 M82.37 -0.31 C82.37 -0.31, 82.37 -0.31, 82.37 -0.31" stroke="#1e1e1e" stroke-width="2" fill="none"></path></g></g><mask></mask><g stroke-linecap="round" transform="translate(858.7316965865659 244.44952595491594) rotate(0 70.09943221703759 70.09943221703756)"><path d="M71 0 L140.2 71 L71 140.2 L0 71" stroke="none" stroke-width="0" fill="#40c057" fill-rule="evenodd"></path><path d="M71 0 C96.4 26.06, 121.8 52.13, 140.2 71 M71 0 C91.64 21.18, 112.28 42.36, 140.2 71 M140.2 71 C115.65 95.55, 91.1 120.1, 71 140.2 M140.2 71 C126.27 84.93, 112.33 98.86, 71 140.2 M71 140.2 C43.06 112.96, 15.11 85.73, 0 71 M71 140.2 C48.82 118.58, 26.64 96.97, 0 71 M0 71 C17.28 53.72, 34.57 36.43, 71 0 M0 71 C27.23 43.77, 54.46 16.54, 71 0" stroke="#1e1e1e" stroke-width="2" fill="none"></path></g><g transform="translate(881.9561288036036 304.94895817195356) rotate(0 46.875 9.600000000000023)"><text x="93.75" y="0" font-family="Cascadia, Segoe UI Emoji" font-size="16px" fill="#1e1e1e" text-anchor="end" style="white-space: pre;" direction="ltr" dominant-baseline="text-before-edge">AutoMapper</text></g><g stroke-linecap="round"><g transform="translate(838.3558157480891 314.39119475150244) rotate(0 9.327149084086273 -0.01439771721982197)"><path d="M0 0 C6.72 -0.01, 13.44 -0.02, 18.65 -0.03 M0 0 C7.12 -0.01, 14.24 -0.02, 18.65 -0.03" stroke="#1e1e1e" stroke-width="2" fill="none"></path></g></g><mask></mask><g stroke-linecap="round" transform="translate(1024.8838045443622 249.54895817195364) rotate(0 129 64.99999999999997)"><path d="M32 0 C89.43 0, 146.86 0, 226 0 C247.33 0, 258 10.67, 258 32 C258 53.23, 258 74.45, 258 98 C258 119.33, 247.33 130, 226 130 C172.41 130, 118.83 130, 32 130 C10.67 130, 0 119.33, 0 98 C0 80.88, 0 63.75, 0 32 C0 10.67, 10.67 0, 32 0" stroke="none" stroke-width="0" fill="#fab005"></path><path d="M32 0 C85.32 0, 138.63 0, 226 0 M32 0 C70.86 0, 109.73 0, 226 0 M226 0 C247.33 0, 258 10.67, 258 32 M226 0 C247.33 0, 258 10.67, 258 32 M258 32 C258 49.12, 258 66.23, 258 98 M258 32 C258 52.14, 258 72.27, 258 98 M258 98 C258 119.33, 247.33 130, 226 130 M258 98 C258 119.33, 247.33 130, 226 130 M226 130 C182.88 130, 139.76 130, 32 130 M226 130 C171.23 130, 116.46 130, 32 130 M32 130 C10.67 130, 0 119.33, 0 98 M32 130 C10.67 130, 0 119.33, 0 98 M0 98 C0 79.59, 0 61.18, 0 32 M0 98 C0 76.28, 0 54.56, 0 32 M0 32 C0 10.67, 10.67 0, 32 0 M0 32 C0 10.67, 10.67 0, 32 0" stroke="#1e1e1e" stroke-width="2" fill="none"></path></g><g transform="translate(1095.2900545443622 302.5489581719537) rotate(0 58.59375 12)"><text x="58.59375" y="0" font-family="Cascadia, Segoe UI Emoji" font-size="20px" fill="#1e1e1e" text-anchor="middle" style="white-space: pre;" direction="ltr" dominant-baseline="text-before-edge">Repository</text></g><g stroke-linecap="round"><g transform="translate(999.8166435940539 315.2395450449951) rotate(0 12.142854087044157 -0.1728450916669999)"><path d="M0 0 C8.4 -0.12, 16.8 -0.24, 24.29 -0.35 M0 0 C7.75 -0.11, 15.51 -0.22, 24.29 -0.35" stroke="#1e1e1e" stroke-width="2" fill="none"></path></g></g><mask></mask><g stroke-linecap="round" transform="translate(1387.6349922331233 294.16651830245075) rotate(0 49.28364613568124 20.38243986950289)"><path d="M0 0 L98.57 0 L98.57 40.76 L0 40.76" stroke="none" stroke-width="0" fill="#868e96"></path><path d="M0 0 C21.42 0, 42.83 0, 98.57 0 M0 0 C35.27 0, 70.54 0, 98.57 0 M98.57 0 C98.57 13, 98.57 26, 98.57 40.76 M98.57 0 C98.57 11.29, 98.57 22.57, 98.57 40.76 M98.57 40.76 C71.69 40.76, 44.82 40.76, 0 40.76 M98.57 40.76 C67.24 40.76, 35.9 40.76, 0 40.76 M0 40.76 C0 29.92, 0 19.08, 0 0 M0 40.76 C0 31.18, 0 21.59, 0 0" stroke="#ffffff" stroke-width="2" fill="none"></path></g><g transform="translate(1408.7936383688045 304.94895817195356) rotate(0 28.125 9.600000000000023)"><text x="28.125" y="0" font-family="Cascadia, Segoe UI Emoji" font-size="16px" fill="#ffffff" text-anchor="middle" style="white-space: pre;" direction="ltr" dominant-baseline="text-before-edge">Entity</text></g><g stroke-linecap="round"><g transform="translate(1284.7495306803978 314.0503648708975) rotate(0 48.75055224696575 0.49859330105613253)"><path d="M0 0 C29.44 0.3, 58.89 0.6, 97.5 1 M0 0 C38.29 0.39, 76.58 0.78, 97.5 1" stroke="#1e1e1e" stroke-width="2" fill="none"></path></g><g transform="translate(1284.7495306803978 314.0503648708975) rotate(0 48.75055224696575 0.49859330105613253)"><path d="M0 0 L13.66 -6.2 L13.53 6.48 L0 0" stroke="none" stroke-width="0" fill="#1e1e1e" fill-rule="evenodd"></path><path d="M0 0 C4.12 -1.87, 8.25 -3.74, 13.66 -6.2 M0 0 C5.36 -2.43, 10.73 -4.87, 13.66 -6.2 M13.66 -6.2 C13.61 -1.6, 13.56 2.99, 13.53 6.48 M13.66 -6.2 C13.62 -2.77, 13.59 0.67, 13.53 6.48 M13.53 6.48 C9.79 4.69, 6.05 2.9, 0 0 M13.53 6.48 C10.44 5, 7.35 3.52, 0 0 M0 0 C0 0, 0 0, 0 0 M0 0 C0 0, 0 0, 0 0" stroke="#1e1e1e" stroke-width="2" fill="none"></path></g><g transform="translate(1284.7495306803978 314.0503648708975) rotate(0 48.75055224696575 0.49859330105613253)"><path d="M97.5 1 L83.84 7.2 L83.97 -5.48 L97.5 1" stroke="none" stroke-width="0" fill="#1e1e1e" fill-rule="evenodd"></path><path d="M97.5 1 C93.38 2.87, 89.25 4.74, 83.84 7.2 M97.5 1 C92.14 3.43, 86.77 5.87, 83.84 7.2 M83.84 7.2 C83.89 2.6, 83.94 -1.99, 83.97 -5.48 M83.84 7.2 C83.88 3.76, 83.91 0.33, 83.97 -5.48 M83.97 -5.48 C87.71 -3.69, 91.45 -1.9, 97.5 1 M83.97 -5.48 C87.06 -4, 90.15 -2.52, 97.5 1 M97.5 1 C97.5 1, 97.5 1, 97.5 1 M97.5 1 C97.5 1, 97.5 1, 97.5 1" stroke="#1e1e1e" stroke-width="2" fill="none"></path></g></g><mask></mask><g stroke-linecap="round"><g transform="translate(1489.6282821370949 313.8367812191277) rotate(0 47.8719404504493 0.7121769528258142)"><path d="M0 0 C28.99 0.43, 57.98 0.86, 95.74 1.42 M0 0 C22.65 0.34, 45.31 0.67, 95.74 1.42" stroke="#1e1e1e" stroke-width="2" fill="none"></path></g><g transform="translate(1489.6282821370949 313.8367812191277) rotate(0 47.8719404504493 0.7121769528258142)"><path d="M0 0 L13.69 -6.14 L13.5 6.54 L0 0" stroke="none" stroke-width="0" fill="#1e1e1e" fill-rule="evenodd"></path><path d="M0 0 C4.14 -1.86, 8.29 -3.72, 13.69 -6.14 M0 0 C3.24 -1.45, 6.48 -2.9, 13.69 -6.14 M13.69 -6.14 C13.63 -2.43, 13.58 1.27, 13.5 6.54 M13.69 -6.14 C13.62 -1.43, 13.55 3.27, 13.5 6.54 M13.5 6.54 C8.44 4.09, 3.37 1.63, 0 0 M13.5 6.54 C9.45 4.58, 5.41 2.62, 0 0 M0 0 C0 0, 0 0, 0 0 M0 0 C0 0, 0 0, 0 0" stroke="#1e1e1e" stroke-width="2" fill="none"></path></g><g transform="translate(1489.6282821370949 313.8367812191277) rotate(0 47.8719404504493 0.7121769528258142)"><path d="M95.74 1.42 L82.06 7.56 L82.25 -5.12 L95.74 1.42" stroke="none" stroke-width="0" fill="#1e1e1e" fill-rule="evenodd"></path><path d="M95.74 1.42 C91.6 3.28, 87.46 5.14, 82.06 7.56 M95.74 1.42 C92.51 2.88, 89.27 4.33, 82.06 7.56 M82.06 7.56 C82.11 3.86, 82.17 0.15, 82.25 -5.12 M82.06 7.56 C82.13 2.86, 82.2 -1.84, 82.25 -5.12 M82.25 -5.12 C87.31 -2.66, 92.37 -0.21, 95.74 1.42 M82.25 -5.12 C86.29 -3.16, 90.34 -1.2, 95.74 1.42 M95.74 1.42 C95.74 1.42, 95.74 1.42, 95.74 1.42 M95.74 1.42 C95.74 1.42, 95.74 1.42, 95.74 1.42" stroke="#1e1e1e" stroke-width="2" fill="none"></path></g></g><mask></mask></svg>